<svg width="248" height="2634" viewBox="0 0 248 2634" fill="none" xmlns="http://www.w3.org/2000/svg">
<path d="M120 1427V1504.5" stroke="black"/>
<path d="M118 0.5L119.5 263.5M119.5 263.5C80 264.333 1 291.9 1 395.5C6.33333 429.167 32.2 496.8 93 498V475C83.6667 477.5 62.6 478.3 53 461.5C52.8333 457.167 48.7 446 33.5 436C35.1667 432.5 41.9 429 55.5 443C59.6667 451.667 73.2 466.4 94 456C93.8333 452.833 95.2 445.1 102 439.5C71.6667 435.833 20.5 412 58.5 346C56 341 52.7 327.6 59.5 314C63.5 312.833 75.9 313.7 93.5 326.5C102.667 323.167 127.9 318.5 155.5 326.5C162.833 321.333 179.9 311.6 189.5 314C192 319.833 195.8 334.4 191 346C205.167 373.209 216.3 430.001 147.5 439.5C150.833 442.167 157.3 457.9 156.5 499.5C192 494.667 259.4 458.9 245 354.5C235.5 322.5 197.1 259.5 119.5 263.5ZM119.5 263.5V744.5" stroke="black"/>
<path d="M119.5 744C98.3334 753 68.7001 778.2 119.5 807C145 818.667 180.7 847.7 119.5 870.5C93.3336 879 56.7005 903.6 119.5 934C145.833 944.5 182.7 972.7 119.5 1001.5V1156" stroke="black"/>
<path d="M120 1500.5V1884.5M120 1884.5L1.5 1946V2064L27.5 2088H80V1966.5M120 1884.5L247.5 1946V2064L126.5 2133.5M126.5 2133.5L89 2114M126.5 2133.5V2446C93.1667 2456.33 46.5 2485 126.5 2517C162 2526.83 211.7 2552.3 126.5 2575.5V2633.5M198 1985.5C182 1965.17 143 1936.7 115 1985.5C113 1993.17 118.7 2008.6 157.5 2009C173.167 2009.17 203.2 2014.2 198 2033C200.5 2044.17 195.9 2064.9 157.5 2058.5C143.333 2059.17 115 2056.6 115 2041" stroke="black"/>
<path d="M119.5 1155V1288.5" stroke="black"/>
<path d="M119 1338C105.4 1339.2 100.667 1351.5 100 1357.5C102.4 1374.7 113.667 1378.33 119 1378C135 1376.4 139 1363.67 139 1357.5C136.6 1341.1 124.667 1337.67 119 1338Z" stroke="black"/>
<path d="M119.5 1290C109.834 1277.33 85.6004 1254.8 66.0004 1266C57.0004 1272.17 46.2004 1298.9 75.0004 1356.5M119.5 1290C133.101 1295.2 155.834 1336.5 165.5 1356.5C195.1 1423.3 180.5 1448.67 169.5 1453C152.099 1453.68 135.097 1442.42 120.18 1426.73M119.5 1290C113.274 1296.39 103.743 1307.15 95.0327 1319M75.0004 1356.5C63.3338 1380.5 45.2007 1432.8 66.0004 1450C73.7271 1454.71 93.4527 1454.43 120.18 1426.73M75.0004 1356.5C77.4716 1345.38 85.7907 1331.58 95.0327 1319M75.0004 1356.5C83.2799 1375.47 99.779 1405.25 120.18 1426.73M95.0327 1319C133.459 1263 162.022 1260.33 171.5 1266C202.7 1284.8 165.833 1361.5 143.5 1397.5C135.274 1409.58 127.467 1419.17 120.18 1426.73M95.0327 1319C72.0218 1319.83 23.6 1328.5 14 1356.5C13.6669 1369.5 34.3007 1396.4 119.5 1400C152.167 1399.67 219 1390.5 225 1356.5C220.022 1340.33 187.059 1310.2 95.0327 1319Z" stroke="black"/>
</svg>
