<?xml version="1.0" standalone="no"?>
<!DOCTYPE svg PUBLIC "-//W3C//DTD SVG 20010904//EN"
 "http://www.w3.org/TR/2001/REC-SVG-20010904/DTD/svg10.dtd">
<svg version="1.0" xmlns="http://www.w3.org/2000/svg"
 width="1761.000000pt" height="1680.000000pt" viewBox="0 0 1761.000000 1680.000000"
 preserveAspectRatio="xMidYMid meet">

<g transform="translate(0.000000,1680.000000) scale(0.100000,-0.100000)"
fill="#000000" stroke="none">
<path d="M9185 15079 c-221 -12 -377 -28 -391 -40 -7 -6 -62 -15 -121 -20 -69
-6 -143 -20 -205 -39 -53 -17 -106 -30 -118 -30 -13 0 -37 -9 -54 -19 -17 -11
-55 -29 -85 -41 -32 -12 -75 -42 -108 -73 -30 -29 -88 -83 -128 -122 -85 -82
-144 -166 -213 -302 -27 -54 -59 -114 -71 -133 -11 -19 -26 -46 -33 -60 -7
-14 -22 -38 -35 -53 -21 -27 -113 -210 -117 -234 -1 -6 -9 -26 -18 -45 -9 -18
-22 -76 -30 -129 -11 -77 -11 -106 -1 -155 7 -32 12 -86 13 -119 0 -33 5 -76
10 -95 20 -65 31 -214 31 -396 0 -100 -4 -190 -7 -200 -5 -13 -4 -16 3 -9 10
10 26 88 43 210 52 368 85 466 211 616 63 75 203 196 221 191 5 -1 18 3 30 9
13 7 18 7 14 1 -3 -6 -1 -14 5 -17 6 -4 13 2 16 13 3 14 11 18 24 15 13 -4 19
0 19 11 0 9 8 16 18 16 10 0 39 21 66 48 26 26 51 47 55 48 13 1 86 39 89 47
4 7 68 39 84 41 3 1 10 4 14 9 4 4 15 7 23 7 9 0 23 9 31 20 8 11 20 20 27 20
7 0 13 5 13 11 0 6 10 9 23 7 12 -2 21 -9 20 -16 -2 -6 4 -12 12 -12 8 0 17
12 21 28 9 41 12 49 13 30 1 -19 21 -25 21 -7 0 6 7 9 15 5 9 -3 15 0 15 8 0
8 12 21 26 31 20 13 28 14 40 4 9 -7 14 -8 14 -1 0 6 -5 12 -12 14 -8 3 -8 9
0 24 6 10 12 13 12 7 0 -18 25 -16 72 7 23 11 48 20 55 20 7 0 13 5 13 11 0 6
7 9 15 5 8 -3 24 4 34 15 11 12 24 19 29 15 5 -3 15 6 22 19 15 28 18 29 40
15 13 -9 13 -11 0 -20 -12 -8 -9 -10 13 -10 17 0 27 5 27 15 0 8 7 15 16 15
10 0 14 7 12 23 -2 15 2 22 13 22 9 0 24 7 34 15 15 13 19 12 30 -3 13 -18 35
-23 35 -8 0 4 15 7 34 6 21 -2 41 3 52 13 13 13 31 16 67 13 33 -2 52 1 58 10
6 11 12 9 28 -5 15 -14 29 -17 51 -12 21 4 39 0 55 -10 14 -9 42 -18 62 -21
21 -3 43 -9 49 -14 6 -5 14 -6 17 -2 4 3 13 0 21 -6 8 -7 27 -11 43 -9 21 2
30 -3 40 -22 10 -21 13 -22 19 -7 6 16 9 15 30 -8 14 -15 34 -25 51 -25 32 0
48 -9 56 -30 4 -11 6 -10 6 4 1 18 2 18 20 2 12 -11 17 -27 15 -48 -3 -22 8
-57 37 -114 22 -46 38 -88 35 -93 -4 -5 -2 -12 4 -16 13 -8 13 -55 0 -55 -13
0 -9 -32 5 -42 6 -5 5 -11 -5 -17 -11 -8 -12 -14 -3 -33 14 -28 25 -75 25
-108 0 -14 6 -33 15 -42 8 -9 12 -21 9 -27 -4 -6 4 -20 18 -32 14 -12 23 -26
20 -31 -3 -4 0 -8 5 -8 6 0 10 -3 9 -7 -4 -16 38 -73 50 -68 6 2 12 -2 12 -9
0 -8 11 -21 25 -30 14 -9 23 -21 21 -25 -3 -4 5 -14 19 -21 13 -7 29 -25 35
-40 7 -16 25 -34 42 -41 40 -16 82 -55 74 -68 -4 -5 10 -26 29 -46 20 -19 33
-40 30 -45 -3 -6 -1 -10 5 -10 6 0 8 -4 5 -10 -3 -6 1 -7 10 -4 11 5 18 0 22
-15 3 -11 9 -21 13 -21 4 0 15 -19 25 -42 11 -29 19 -38 24 -29 11 17 16 5 20
-39 2 -19 9 -39 17 -43 8 -4 14 -14 14 -21 0 -8 7 -19 15 -26 10 -8 15 -31 15
-66 0 -30 4 -54 9 -54 5 0 12 -16 15 -35 4 -20 18 -57 32 -82 24 -45 34 -120
14 -108 -5 3 -10 19 -10 36 0 16 -5 29 -11 29 -7 0 -9 -10 -4 -27 4 -16 9 -59
11 -98 2 -38 8 -71 12 -73 5 -1 7 -45 6 -97 -2 -54 1 -95 7 -95 5 0 9 12 9 26
0 14 4 23 10 19 6 -3 10 -27 10 -52 0 -36 3 -44 15 -39 9 3 15 0 15 -9 0 -8 6
-15 14 -15 12 0 13 -7 5 -32 -11 -39 -3 -50 17 -23 14 19 15 19 20 -3 4 -12
11 -22 16 -22 5 0 6 -4 3 -10 -3 -5 -2 -10 2 -10 5 0 9 -16 9 -35 0 -42 4 -46
32 -38 17 4 21 10 16 28 -3 13 -1 26 5 29 6 4 11 25 11 47 0 22 5 39 11 39 7
0 9 -9 5 -24 -6 -24 21 -66 43 -66 7 0 9 -9 6 -22 -2 -13 -6 -45 -7 -72 -3
-54 15 -76 20 -23 1 17 4 46 6 62 2 17 4 41 5 54 1 20 3 21 16 11 8 -7 15 -22
16 -34 0 -19 1 -19 12 4 10 23 11 22 16 -25 l6 -50 13 43 c7 23 18 42 25 41
27 -3 37 2 37 21 0 11 4 20 9 20 5 0 12 11 15 25 8 30 32 24 40 -11 4 -13 12
-23 18 -21 7 1 13 -7 15 -18 9 -45 12 -49 31 -31 25 22 32 20 32 -9 0 -15 6
-25 14 -25 19 0 30 17 17 25 -6 3 -8 12 -5 19 3 8 1 17 -5 21 -13 8 -15 52 -2
59 17 11 30 -20 33 -82 2 -51 6 -62 20 -62 10 0 18 -4 18 -8 0 -5 10 -8 23 -7
16 1 21 7 19 23 -2 12 2 22 8 22 6 0 9 4 6 9 -4 5 2 7 12 4 10 -2 24 3 31 11
8 9 22 16 32 16 27 0 46 24 53 69 4 29 12 41 29 47 12 4 25 11 28 16 3 5 13
10 21 12 8 1 22 8 30 17 8 8 57 25 109 37 52 13 108 27 126 33 41 13 125 -16
183 -62 51 -41 111 -135 136 -214 16 -50 19 -88 18 -230 -2 -236 -26 -380 -93
-550 -15 -38 -36 -97 -47 -130 -10 -33 -21 -62 -24 -65 -3 -3 -21 -30 -41 -60
-46 -69 -103 -129 -158 -166 -39 -25 -41 -29 -26 -40 16 -12 16 -17 -6 -69
-13 -31 -37 -69 -54 -85 -16 -16 -50 -48 -75 -71 -30 -28 -38 -40 -23 -35 12
4 24 2 28 -4 3 -6 10 -8 15 -5 10 6 50 -15 50 -27 0 -3 -16 -23 -35 -44 -38
-40 -44 -68 -19 -82 19 -10 11 -32 -12 -32 -17 0 -19 -21 -3 -37 7 -7 9 -22 4
-40 -11 -39 -13 -63 -5 -63 12 0 4 -64 -9 -68 -6 -2 -11 -10 -11 -18 0 -8 -8
-14 -17 -14 -13 0 -11 -6 11 -29 23 -24 27 -37 27 -87 0 -32 7 -84 15 -116 8
-32 12 -63 8 -70 -12 -19 -15 -114 -9 -303 3 -119 -4 -221 -26 -365 -7 -41
-13 -91 -15 -110 -6 -74 -14 -99 -29 -93 -11 4 -13 1 -8 -13 5 -13 3 -15 -7
-9 -9 6 -12 4 -8 -6 6 -15 -14 -138 -26 -157 -7 -12 -17 -99 -17 -162 -1 -24
-4 -49 -7 -55 -8 -12 -9 -17 -11 -50 0 -14 -11 -35 -22 -46 -17 -17 -19 -23
-8 -30 11 -7 10 -9 -3 -9 -10 0 -18 -5 -18 -11 0 -6 6 -9 13 -6 8 3 14 -1 14
-9 0 -8 -4 -14 -9 -14 -4 0 -8 -9 -8 -19 0 -10 -7 -21 -15 -25 -8 -3 -15 -17
-15 -31 0 -26 -63 -102 -149 -182 -25 -23 -54 -49 -63 -59 -9 -9 -21 -13 -27
-9 -6 3 -11 1 -11 -4 0 -6 -9 -11 -20 -11 -10 0 -24 -9 -30 -20 -6 -11 -17
-20 -25 -20 -8 0 -15 -7 -15 -15 0 -9 -8 -19 -17 -22 -17 -6 -59 -35 -106 -73
-28 -22 -39 -34 -71 -74 -15 -20 -32 -36 -37 -36 -5 0 -34 -25 -64 -54 -30
-30 -64 -60 -75 -66 -11 -6 -18 -15 -15 -19 2 -5 -4 -11 -15 -14 -11 -3 -20
-12 -20 -21 0 -9 -6 -16 -12 -16 -7 0 -35 -20 -61 -44 -26 -25 -61 -51 -78
-58 -16 -7 -29 -17 -29 -23 0 -5 -19 -21 -41 -33 -23 -13 -38 -19 -35 -13 11
17 -19 13 -42 -6 -52 -44 -67 -53 -79 -49 -6 3 -17 -1 -23 -9 -6 -8 -18 -11
-26 -8 -8 3 -20 0 -28 -6 -7 -6 -16 -8 -19 -4 -4 3 -18 0 -32 -7 -20 -10 -28
-11 -37 -2 -7 7 -22 12 -35 12 -13 0 -23 5 -23 11 0 6 -8 9 -18 7 -25 -7 -46
26 -33 50 8 15 2 17 -62 20 -72 3 -104 15 -79 31 7 4 12 14 10 22 -2 9 4 13
17 11 12 -2 16 0 9 5 -6 4 -14 17 -18 28 -6 16 -9 17 -17 5 -8 -13 -10 -13
-19 0 -5 8 -8 21 -5 28 2 6 -2 12 -11 12 -9 0 -14 7 -12 18 3 14 -4 17 -46 14
-42 -2 -47 0 -36 13 10 12 10 15 -4 15 -9 0 -16 8 -16 20 0 11 -5 20 -11 20
-7 0 -9 9 -6 21 3 12 0 22 -9 26 -16 6 -19 39 -4 48 6 3 10 17 10 31 0 14 -4
23 -9 20 -4 -3 -13 6 -19 19 -7 14 -16 25 -22 25 -5 0 -10 6 -10 14 0 16 -37
83 -56 104 -7 6 -17 12 -23 12 -14 0 -14 13 1 28 9 9 6 14 -13 21 -18 7 -27 5
-35 -5 -6 -8 -14 -14 -18 -14 -3 0 -15 -9 -27 -21 -17 -17 -19 -26 -12 -43 12
-26 6 -46 -13 -46 -8 0 -14 -8 -14 -17 0 -15 2 -16 10 -3 9 13 10 13 11 0 0
-8 2 -28 3 -45 2 -16 -1 -38 -7 -49 -5 -10 -5 -21 -1 -25 5 -3 16 -19 24 -36
8 -16 23 -36 32 -43 12 -9 15 -21 11 -47 -5 -32 -3 -36 27 -49 28 -12 30 -14
14 -20 -10 -3 -25 -15 -31 -25 -11 -17 -10 -21 6 -26 39 -12 32 -64 -8 -66
-10 0 -11 -2 -3 -6 6 -2 12 -11 12 -19 0 -8 10 -14 23 -15 21 -1 21 -1 -3 -8
l-25 -7 23 -8 c17 -6 20 -11 12 -21 -11 -14 -4 -45 12 -45 5 0 6 5 3 10 -4 7
3 8 22 4 34 -8 42 -15 25 -21 -7 -3 -21 -13 -30 -22 -29 -28 -72 -47 -80 -34
-5 8 -15 6 -32 -7 l-25 -20 23 0 c12 0 22 -4 22 -9 0 -6 -18 -9 -39 -8 -28 1
-41 6 -44 18 -3 10 -27 24 -58 34 -30 10 -62 24 -71 33 -10 8 -18 11 -18 6 0
-5 -6 -2 -13 6 -16 20 -53 40 -72 40 -8 0 -15 5 -15 10 0 6 -6 10 -14 10 -8 0
-23 11 -34 25 -11 14 -25 25 -31 25 -6 0 -11 3 -11 8 0 4 -13 22 -30 40 -16
18 -34 42 -40 52 -6 11 -17 17 -25 14 -8 -4 -18 1 -21 10 -3 9 -12 16 -20 16
-8 0 -14 9 -14 20 0 11 -7 23 -15 26 -8 3 -17 14 -20 25 -4 10 -11 19 -17 19
-12 0 -102 62 -107 74 -2 5 -12 17 -22 27 -11 11 -19 26 -19 34 0 8 -9 15 -20
15 -18 0 -25 10 -21 33 0 4 -3 7 -8 7 -15 0 -72 83 -67 97 3 7 -1 10 -10 6 -7
-3 -14 -1 -14 5 0 6 -3 18 -7 28 -4 12 -3 15 5 10 8 -4 10 -2 6 7 -3 8 -1 18
5 22 8 4 6 15 -4 35 -8 16 -15 36 -15 45 0 8 -6 15 -12 15 -9 0 -8 4 2 10 11
7 12 10 2 10 -9 0 -11 7 -7 20 3 10 1 28 -5 39 -5 11 -12 33 -14 48 -8 55 -36
160 -52 192 -19 38 -13 48 21 33 30 -14 31 3 0 31 -16 15 -17 20 -5 27 12 8
11 10 -6 10 -18 0 -21 6 -20 38 1 31 -3 38 -21 40 -21 3 -48 54 -35 67 3 3 -4
8 -16 12 -12 3 -22 11 -22 18 0 7 -12 23 -27 36 -16 13 -37 34 -47 46 l-19 23
41 -2 c26 -1 42 -6 42 -13 0 -7 9 -15 21 -18 14 -4 19 -2 15 8 -4 12 13 25 35
25 5 0 18 -9 29 -20 12 -12 32 -20 48 -19 15 1 78 0 140 0 87 -2 122 -6 146
-19 18 -10 31 -22 29 -27 -1 -6 27 -11 64 -13 37 -2 72 -7 78 -11 11 -9 103
-26 123 -22 6 1 12 -3 12 -8 0 -6 13 -8 31 -4 19 4 34 1 38 -6 4 -7 19 -13 32
-14 13 -1 30 -7 37 -14 16 -15 32 -16 66 -3 16 6 27 6 31 0 9 -15 32 -12 49 5
9 9 17 11 21 5 3 -5 26 -7 53 -4 45 6 46 6 27 -11 -11 -9 -14 -14 -8 -10 7 3
22 1 33 -5 16 -8 22 -7 32 10 7 11 19 20 26 20 9 0 11 7 7 20 -5 15 -3 18 8
14 16 -6 67 36 67 55 0 6 12 11 26 11 14 0 23 -4 20 -9 -4 -5 3 -7 14 -4 15 4
20 0 20 -16 0 -33 17 -25 23 12 6 38 2 44 -17 28 -15 -12 -66 -5 -66 10 0 4 9
14 21 22 18 13 19 18 8 35 -10 16 -10 23 0 36 7 8 10 19 7 25 -4 5 3 12 14 16
11 3 20 12 20 20 0 7 6 16 13 18 6 3 0 6 -15 6 -32 1 -34 10 -13 50 11 23 12
35 2 60 -6 17 -16 31 -22 31 -7 0 -11 20 -10 55 2 48 0 55 -16 55 -23 0 -25
25 -4 34 8 3 15 11 15 19 0 9 9 12 29 9 20 -3 35 2 50 17 28 28 35 27 27 -4
-6 -23 -5 -24 20 -15 28 11 90 8 102 -5 4 -4 1 -10 -5 -12 -7 -3 -13 -13 -13
-24 0 -12 5 -16 15 -13 11 4 15 0 15 -16 0 -16 -4 -20 -15 -16 -8 3 -15 1 -15
-3 0 -16 31 -21 36 -6 4 10 14 13 31 9 16 -4 28 -2 34 7 13 20 11 29 -6 29 -8
0 -15 9 -15 19 0 11 -5 23 -12 27 -7 4 -8 3 -4 -4 4 -7 1 -12 -7 -12 -27 0
-26 13 3 40 21 19 28 34 23 45 -4 13 -2 16 8 13 8 -3 14 -18 14 -34 1 -22 6
-30 23 -32 16 -2 20 1 16 11 -4 10 6 18 33 25 21 5 30 10 21 11 -10 1 -18 9
-18 19 0 10 -3 13 -8 6 -14 -21 -42 -24 -49 -6 -4 9 -11 20 -17 25 -7 5 -6 10
4 17 13 8 12 11 -5 24 -11 9 -23 16 -27 16 -5 0 -8 6 -8 14 0 18 33 30 60 21
35 -11 22 -26 -17 -20 -34 5 -35 4 -13 -5 14 -6 36 -9 49 -7 34 7 51 -2 51
-24 0 -10 7 -19 15 -19 9 0 18 -7 21 -15 10 -24 24 -17 24 11 0 19 4 25 15 21
21 -9 31 14 12 28 -20 14 -22 26 -4 22 7 -1 13 11 15 28 2 16 15 39 28 52 13
12 24 29 24 38 0 9 4 14 10 10 18 -11 96 47 85 64 -8 14 26 22 41 10 11 -9 14
-8 14 5 0 9 4 16 10 16 5 0 32 23 59 50 28 28 57 50 66 50 10 0 15 10 15 33 0
23 -5 34 -15 34 -8 0 -15 -5 -15 -11 0 -6 -5 -4 -10 4 -5 8 -7 23 -4 32 4 15
-3 17 -53 15 l-58 -2 3 33 c2 25 -2 32 -15 32 -17 1 -17 1 0 14 9 7 17 21 17
30 0 15 -2 15 -30 1 -16 -9 -30 -20 -30 -26 0 -8 -4 -8 -14 0 -10 9 -16 8 -26
-4 -7 -8 -17 -15 -23 -15 -7 0 -7 4 1 12 7 7 12 21 12 32 0 18 -4 16 -29 -12
-29 -32 -55 -46 -31 -17 21 25 4 48 -30 40 -19 -4 -30 -3 -30 4 0 15 -43 14
-58 -1 -14 -14 -16 -5 -3 20 39 77 39 94 -2 75 -36 -18 -72 -24 -58 -10 6 6
11 19 11 28 0 26 -38 20 -44 -7 -3 -12 -12 -24 -20 -27 -10 -4 -13 -1 -9 9 3
8 -1 14 -11 14 -9 0 -16 5 -16 11 0 6 -9 9 -20 6 -10 -3 -25 1 -31 9 -9 12
-15 12 -27 2 -13 -11 -15 -9 -10 14 3 16 0 29 -7 32 -7 2 -16 17 -20 33 -3 15
-15 36 -26 46 -18 17 -19 17 -19 -6 0 -13 -9 -33 -21 -46 -20 -22 -20 -23 -3
-37 15 -11 15 -13 3 -8 -11 3 -24 -7 -40 -33 -17 -29 -24 -34 -27 -20 -2 9 -8
17 -12 17 -5 0 -5 -12 1 -27 9 -25 6 -90 -7 -134 -7 -25 -40 -30 -60 -8 -24
26 -31 24 -39 -11 -7 -34 -25 -41 -25 -10 0 20 -19 29 -21 10 -1 -5 -3 -14 -4
-20 -1 -5 -3 -14 -4 -20 -2 -21 -21 -9 -21 14 0 19 -4 23 -20 19 -14 -4 -20 0
-20 11 0 9 -7 16 -15 16 -8 0 -15 -4 -15 -10 0 -22 -22 -8 -33 20 -8 20 -16
29 -26 25 -8 -3 -18 0 -22 7 -11 17 -21 5 -13 -15 3 -9 12 -13 20 -10 9 3 14
-2 14 -15 0 -11 -7 -23 -16 -26 -22 -9 -24 -8 -24 12 0 14 -2 15 -10 2 -18
-28 -12 -41 18 -35 l27 5 -27 -11 c-24 -9 -26 -13 -18 -35 7 -18 6 -31 -6 -49
-17 -26 -34 -33 -34 -15 0 18 -22 10 -27 -10 -4 -16 -9 -18 -24 -9 -25 13 -24
25 6 51 30 26 32 38 6 38 -25 0 -43 -23 -34 -45 5 -13 3 -16 -6 -10 -8 4 -17
2 -21 -5 -5 -7 -13 -9 -21 -4 -18 10 -59 15 -59 5 0 -4 5 -12 12 -19 9 -9 8
-12 -4 -12 -9 0 -19 -9 -23 -19 -3 -11 -12 -22 -20 -25 -8 -3 -15 -15 -15 -26
0 -11 -4 -20 -10 -20 -5 0 -10 11 -10 24 0 29 -19 44 -31 25 -5 -8 -9 -10 -9
-5 0 5 -7 3 -15 -4 -12 -10 -16 -9 -21 3 -3 8 -16 18 -29 21 -12 3 -25 15 -28
26 -3 11 -11 20 -17 20 -8 0 -10 -8 -7 -21 3 -13 1 -19 -6 -16 -7 3 -12 8 -11
13 1 5 -7 17 -17 27 -16 14 -19 14 -19 2 0 -9 -10 -15 -26 -15 -18 0 -24 -5
-22 -17 1 -10 -1 -24 -6 -31 -12 -19 4 -30 17 -12 17 23 50 14 37 -9 -5 -10
-6 -22 -2 -26 4 -5 -1 -5 -10 -2 -23 8 -48 -1 -48 -17 0 -7 -7 -13 -15 -13
-23 0 -21 83 3 97 16 10 15 10 -3 8 -12 -2 -30 9 -46 27 -35 38 -47 28 -20
-16 26 -43 27 -59 1 -52 -15 4 -20 0 -20 -15 0 -14 -9 -22 -28 -27 -23 -5 -35
0 -59 22 -16 15 -32 35 -35 44 -4 9 -20 19 -37 22 -38 8 -46 6 -46 -11 0 -7
-13 -21 -29 -31 -30 -20 -98 -19 -123 2 -9 6 -13 6 -13 -2 0 -9 -49 -41 -64
-41 -2 0 -7 8 -9 18 -3 9 -5 2 -6 -17 -1 -26 -4 -32 -17 -27 -9 3 -18 6 -20 6
-2 0 -4 7 -4 15 0 8 5 15 10 15 6 0 10 7 10 15 0 23 -16 18 -28 -10 -12 -26
-18 -26 -84 -8 -10 2 -18 -1 -18 -7 0 -6 -12 -11 -27 -10 -60 4 -62 3 -58 -43
2 -40 1 -43 -19 -40 -12 3 -30 -4 -43 -16 -12 -12 -27 -21 -33 -21 -5 0 -10
-8 -10 -18 0 -15 -7 -18 -30 -17 -25 1 -32 -3 -37 -23 -3 -14 -1 -33 6 -44 9
-15 8 -18 -8 -18 -25 0 -36 -17 -21 -35 8 -10 5 -19 -16 -39 -23 -21 -25 -27
-15 -40 10 -12 11 -23 3 -43 -18 -45 -25 -120 -13 -127 6 -4 11 -12 11 -17 0
-6 -4 -7 -10 -4 -5 3 -10 -1 -10 -10 0 -9 -4 -13 -10 -10 -5 3 -10 15 -10 26
0 10 -7 19 -15 19 -8 0 -15 7 -15 15 0 8 -4 15 -9 15 -13 0 -45 86 -38 104 3
8 1 16 -6 19 -7 2 -13 25 -13 53 -3 83 -5 93 -13 64 -5 -14 -6 -39 -3 -56 4
-30 0 -35 -82 -90 -47 -33 -101 -67 -119 -76 -17 -10 -43 -30 -56 -45 -94
-111 -141 -159 -176 -181 -22 -14 -49 -34 -60 -45 -12 -10 -43 -29 -70 -41
-109 -47 -201 -159 -255 -311 -18 -51 -84 -198 -101 -225 -37 -60 -37 -146 1
-199 18 -26 20 -35 9 -41 -7 -5 -16 -7 -20 -4 -4 2 -29 0 -56 -6 -56 -13 -89
-46 -99 -97 -8 -43 0 -143 14 -169 6 -10 18 -38 26 -62 13 -33 13 -43 4 -46
-23 -7 -635 -15 -692 -9 -31 3 -56 10 -56 15 0 5 5 6 12 2 7 -5 8 -3 3 6 -5 9
-21 10 -59 5 -84 -13 -199 -12 -288 1 -46 7 -107 13 -136 13 -62 1 -183 -26
-197 -44 -7 -8 -52 -16 -115 -21 -135 -11 -135 -11 -132 4 1 6 -2 12 -8 12 -5
0 -10 -7 -10 -15 0 -17 3 -16 -98 -21 -40 -1 -90 -8 -110 -15 -45 -15 -102
-20 -102 -10 0 11 -100 1 -124 -11 -15 -8 -16 -12 -5 -19 11 -7 10 -11 -6 -23
-19 -15 -82 -32 -98 -28 -4 1 -20 -9 -34 -22 -15 -14 -37 -27 -51 -31 -42 -10
-162 -113 -166 -142 -1 -7 -33 -36 -71 -65 -90 -68 -215 -191 -249 -246 -15
-24 -109 -126 -209 -227 -175 -176 -209 -212 -307 -324 -25 -29 -80 -89 -122
-134 -43 -45 -78 -85 -78 -89 0 -4 -14 -22 -31 -40 -17 -18 -39 -50 -48 -70
-10 -21 -34 -57 -54 -80 -54 -62 -136 -164 -189 -233 -25 -33 -59 -76 -76 -95
-17 -19 -47 -57 -66 -85 -20 -27 -60 -83 -88 -124 -83 -115 -171 -252 -232
-356 -19 -33 -60 -98 -91 -145 -52 -79 -82 -116 -236 -299 -30 -36 -77 -93
-103 -126 -27 -33 -86 -100 -132 -150 -45 -49 -100 -117 -122 -150 -77 -116
-152 -236 -152 -241 0 -3 -11 -20 -25 -38 -14 -18 -25 -36 -25 -40 0 -12 -57
-92 -91 -128 -17 -18 -39 -46 -49 -61 -10 -16 -58 -74 -107 -130 -49 -56 -105
-122 -124 -147 -18 -25 -36 -47 -39 -50 -3 -3 -16 -22 -30 -42 -14 -21 -28
-38 -32 -38 -5 0 -8 -5 -8 -11 0 -6 -34 -51 -76 -101 -41 -49 -85 -104 -97
-121 -29 -42 -105 -133 -137 -163 -14 -12 -47 -44 -75 -69 -27 -26 -50 -51
-50 -55 0 -9 -59 -55 -149 -115 -93 -62 -313 -287 -379 -387 -32 -48 -64 -103
-73 -123 -8 -20 -21 -38 -29 -42 -13 -4 -15 -146 -15 -1094 l0 -1089 2010 0
2010 0 0 69 c0 39 -5 73 -10 76 -6 4 -7 13 -1 23 5 9 18 55 29 102 32 131 113
297 186 379 72 80 171 170 206 189 14 7 39 21 55 32 17 11 35 22 40 24 11 5
141 36 149 36 3 0 1 -12 -5 -26 -5 -15 -7 -29 -4 -33 9 -8 25 21 25 47 0 21 3
22 95 22 61 0 108 -5 130 -14 34 -15 46 -38 25 -51 -15 -9 -12 -35 5 -35 7 0
18 7 23 16 6 11 8 5 7 -23 -1 -39 15 -62 45 -63 46 -2 109 -114 136 -241 29
-134 -1 -306 -77 -447 -21 -41 -39 -75 -39 -78 0 -2 131 -4 291 -4 159 0 288
4 285 8 -3 5 -2 22 3 38 4 16 4 40 0 54 -4 14 -10 37 -13 53 -4 15 -13 27 -21
27 -8 0 -15 6 -15 13 0 32 33 115 59 147 27 35 54 94 45 103 -3 2 3 23 12 46
9 23 14 53 11 68 -3 15 1 46 8 69 7 24 9 48 4 55 -22 35 -9 86 40 156 46 65
60 112 31 105 -7 -1 -19 5 -27 15 -13 17 -14 17 -8 -4 7 -25 -13 -42 -26 -22
-7 11 -9 10 -9 -3 0 -10 -5 -18 -11 -18 -5 0 -8 -4 -5 -9 4 -5 -5 -8 -18 -7
-14 2 -24 -2 -23 -8 1 -6 -13 -12 -31 -14 -18 -2 -30 -8 -27 -13 4 -5 0 -9 -8
-9 -16 0 -77 -53 -77 -67 0 -5 -9 -9 -20 -10 -11 -1 -20 4 -20 10 0 7 9 18 20
25 11 7 20 17 20 23 0 6 16 30 35 53 19 24 35 47 35 52 0 27 103 62 275 93
159 29 175 33 181 42 3 5 18 9 35 9 16 0 29 4 29 8 0 4 12 15 28 24 15 9 62
48 105 87 42 39 94 82 115 95 20 13 48 34 62 47 14 13 44 36 65 50 67 44 143
118 225 218 155 191 257 268 405 306 108 28 361 15 530 -27 171 -42 204 -47
326 -48 170 0 279 10 279 25 0 7 19 30 43 52 72 67 250 120 527 159 184 26
869 27 1125 1 470 -48 831 -124 1007 -213 100 -51 148 -117 133 -187 -9 -40
-72 -164 -99 -194 -32 -38 -3 -26 44 17 100 90 321 135 461 94 134 -40 202
-114 260 -283 40 -115 144 -357 200 -461 31 -58 42 -69 113 -111 111 -67 114
-70 92 -115 -28 -61 -16 -87 96 -200 l99 -101 -3 -49 c-2 -40 -7 -51 -25 -59
-13 -5 -23 -15 -23 -21 0 -6 -11 -16 -24 -22 -21 -9 -24 -17 -22 -51 3 -32 0
-41 -13 -41 -12 0 -16 -10 -16 -40 l-1 -40 2698 0 2698 0 0 1439 0 1439 -26
31 c-14 17 -28 47 -31 68 -4 20 -26 75 -50 121 -23 46 -43 89 -43 97 0 29
-149 320 -228 445 -66 105 -121 226 -146 320 -8 30 -22 73 -30 95 -8 22 -15
54 -16 70 0 17 -7 43 -15 59 -8 15 -15 35 -15 43 0 8 -13 54 -29 101 -66 198
-81 248 -81 268 0 11 -7 29 -15 40 -8 10 -15 26 -15 34 0 8 -11 38 -25 65 -13
28 -25 53 -25 57 0 7 -24 62 -79 183 -49 106 -87 177 -103 195 -10 11 -16 20
-13 20 6 0 -14 37 -45 85 -11 17 -27 46 -36 65 -9 19 -26 49 -38 65 -40 55
-133 229 -156 293 -13 35 -29 66 -37 69 -7 3 -13 9 -13 14 0 8 -41 83 -71 129
-10 16 -98 173 -157 280 -20 36 -48 83 -64 104 -15 21 -28 45 -28 51 0 7 -6
15 -14 18 -26 10 -83 103 -261 425 -11 20 -48 66 -82 103 -35 36 -63 69 -63
73 0 13 -147 191 -215 261 -165 169 -312 251 -675 376 -107 37 -233 81 -280
97 -124 43 -354 92 -434 92 -61 0 -84 9 -88 33 -4 32 -34 33 -42 3 -7 -27 -43
-37 -50 -13 -2 6 -10 34 -17 61 -13 52 -75 123 -133 153 -39 20 -112 72 -188
133 -33 27 -84 60 -113 74 -42 20 -58 35 -82 78 -17 29 -40 62 -52 72 -13 12
-21 31 -21 50 0 36 -38 121 -69 153 -23 24 -27 43 -10 43 8 0 7 5 -2 16 -16
20 -56 130 -75 207 -8 32 -21 72 -31 90 -26 51 -91 136 -118 153 -18 12 -22
20 -16 28 12 15 10 96 -2 96 -5 0 -7 6 -4 13 11 30 -32 87 -169 222 -78 78
-117 108 -176 138 -41 20 -82 37 -91 37 -9 0 -19 4 -22 10 -8 12 -84 46 -124
55 -17 4 -31 11 -31 16 0 5 -22 9 -49 9 l-48 0 8 48 c10 66 25 99 55 127 33
31 74 128 74 176 0 24 12 54 40 97 22 33 40 67 40 74 0 7 11 36 24 64 13 28
27 66 31 85 3 19 15 53 26 76 10 24 19 55 19 70 0 16 7 42 16 58 9 17 20 58
25 92 5 34 15 81 23 105 8 24 20 85 26 136 6 51 20 121 30 156 17 61 17 64 0
79 -10 8 -22 12 -26 9 -4 -4 -4 1 -1 11 4 10 7 27 7 38 0 12 7 19 20 19 13 0
22 9 26 28 3 15 8 34 11 42 3 8 11 105 19 215 7 110 20 236 30 280 14 67 16
115 11 300 -3 121 -13 276 -21 345 -8 69 -17 163 -20 208 -4 46 -12 94 -18
105 -6 12 -14 76 -18 141 -6 93 -11 122 -23 131 -9 7 -19 28 -21 48 -6 43 -51
184 -77 243 -11 22 -19 50 -19 63 0 66 -141 300 -282 471 -16 19 -66 84 -110
143 -93 124 -203 247 -274 306 -27 22 -58 49 -70 61 -12 11 -25 20 -30 20 -5
0 -33 15 -61 34 -29 19 -61 37 -72 41 -11 3 -36 19 -56 35 -21 17 -42 30 -47
30 -6 0 -24 10 -41 23 -18 12 -52 32 -77 45 -25 12 -72 38 -105 56 -33 19 -80
44 -105 56 -25 12 -52 27 -60 35 -8 7 -37 20 -63 29 -26 9 -58 22 -70 30 -12
8 -42 22 -67 32 -25 9 -52 23 -60 30 -8 7 -28 16 -45 20 -16 4 -56 20 -89 35
-32 16 -69 29 -82 29 -14 0 -43 12 -65 26 -23 14 -66 30 -97 36 -32 6 -77 19
-102 28 -29 12 -99 22 -195 30 -192 15 -745 20 -940 9z m-1675 -1281 c0 -7 3
-31 6 -53 5 -37 4 -39 -10 -21 -8 10 -19 15 -25 11 -14 -8 -14 16 -1 49 10 27
30 36 30 14z m3226 -370 c7 -21 7 -42 1 -153 -2 -27 -17 -55 -31 -55 -3 0 -6
20 -6 45 0 25 -4 45 -9 45 -15 0 -6 121 10 131 21 13 27 11 35 -13z m-147 -73
l0 -20 -9 20 c-5 11 -9 29 -9 40 l0 20 9 -20 c5 -11 9 -29 9 -40z m213 -220
c3 -13 1 -22 -3 -19 -9 5 -13 44 -5 44 2 0 6 -11 8 -25z m-62 -28 c0 -18 -2
-19 -10 -7 -13 20 -13 43 0 35 6 -3 10 -16 10 -28z m847 -479 c-3 -8 -6 -5 -6
6 -1 11 2 17 5 13 3 -3 4 -12 1 -19z m13 -28 c0 -5 -2 -10 -4 -10 -3 0 -8 5
-11 10 -3 6 -1 10 4 10 6 0 11 -4 11 -10z m-249 -92 c-6 -17 -11 -45 -12 -62
0 -24 -2 -27 -8 -12 -4 11 0 48 8 83 9 37 17 55 19 43 2 -12 -1 -35 -7 -52z
m235 -117 c2 -33 -1 -63 -6 -66 -6 -4 -10 3 -10 15 0 12 -5 30 -11 41 -7 15
-7 28 3 49 7 16 14 27 16 25 2 -2 6 -31 8 -64z m-259 -13 c-3 -7 -5 -2 -5 12
0 14 2 19 5 13 2 -7 2 -19 0 -25z m223 -25 c0 -7 -7 -13 -16 -13 -11 0 -14 5
-10 16 3 9 6 21 6 27 0 16 20 -14 20 -30z m-239 -20 c-8 -15 -10 -15 -11 -2 0
17 10 32 18 25 2 -3 -1 -13 -7 -23z m16 -35 c-3 -8 -6 -5 -6 6 -1 11 2 17 5
13 3 -3 4 -12 1 -19z m163 -82 c6 -26 4 -39 -6 -47 -12 -10 -14 -3 -12 39 3
58 6 59 18 8z m-229 -33 c-9 -15 -10 -13 -11 13 0 17 3 34 8 38 11 12 14 -32
3 -51z m-47 22 c-4 -8 -8 -15 -10 -15 -2 0 -4 7 -4 15 0 8 4 15 10 15 5 0 7
-7 4 -15z m226 -45 c0 -33 -4 -60 -10 -60 -5 0 -10 9 -10 21 0 15 -5 19 -15
15 -8 -3 -15 -1 -15 3 0 5 7 11 15 15 8 3 15 16 15 29 0 21 7 37 17 37 2 0 3
-27 3 -60z m-550 -50 c0 -5 -4 -10 -10 -10 -5 0 -10 5 -10 10 0 6 5 10 10 10
6 0 10 -4 10 -10z m1753 -90 c3 -11 1 -20 -4 -20 -5 0 -9 9 -9 20 0 11 2 20 4
20 2 0 6 -9 9 -20z m-156 -652 c-3 -7 -5 -2 -5 12 0 14 2 19 5 13 2 -7 2 -19
0 -25z m-2710 -1530 c-3 -7 -5 -2 -5 12 0 14 2 19 5 13 2 -7 2 -19 0 -25z
m-127 -14 c0 -8 -6 -11 -15 -8 -8 4 -15 15 -15 26 0 17 3 18 15 8 8 -7 15 -19
15 -26z m-295 -124 c-3 -5 -10 -10 -16 -10 -5 0 -9 5 -9 10 0 6 7 10 16 10 8
0 12 -4 9 -10z m-228 -36 c9 -23 -11 -38 -26 -20 -13 16 -7 36 10 36 5 0 12
-7 16 -16z m53 -39 c0 -9 -6 -12 -15 -9 -8 4 -12 10 -9 15 8 14 24 10 24 -6z
m-303 -17 c-3 -8 -6 -5 -6 6 -1 11 2 17 5 13 3 -3 4 -12 1 -19z m-787 -128 c0
-5 -2 -10 -4 -10 -3 0 -8 5 -11 10 -3 6 -1 10 4 10 6 0 11 -4 11 -10z m2250
-72 c0 -17 -3 -18 -14 -8 -8 6 -12 18 -9 26 7 19 23 7 23 -18z m2279 -43 c13
8 107 -102 142 -164 l28 -52 -37 22 c-20 12 -61 35 -91 49 -29 15 -48 29 -41
32 17 5 -14 95 -40 118 -11 10 -20 24 -20 31 1 8 11 2 25 -14 14 -16 29 -26
34 -22z m-2522 -81 c-3 -3 -12 -4 -19 -1 -8 3 -5 6 6 6 11 1 17 -2 13 -5z
m-257 -554 c0 -5 -5 -10 -11 -10 -5 0 -7 5 -4 10 3 6 8 10 11 10 2 0 4 -4 4
-10z m134 -1275 c3 -8 1 -15 -4 -15 -6 0 -10 7 -10 15 0 8 2 15 4 15 2 0 6 -7
10 -15z m134 -167 c-6 -3 -18 -3 -27 0 -10 4 -11 7 -3 10 7 2 12 11 12 20 0
13 3 12 14 -4 10 -13 11 -21 4 -26z m-301 -114 c-3 -3 -12 -4 -19 -1 -8 3 -5
6 6 6 11 1 17 -2 13 -5z m-1747 -97 c0 -2 -10 -12 -21 -23 -22 -19 -22 -19
-10 4 10 18 31 31 31 19z m-1850 -2362 c0 -3 -9 -24 -20 -45 -11 -22 -23 -60
-26 -84 -6 -38 -3 -47 24 -77 l30 -34 94 1 c51 0 122 6 158 12 36 7 171 16
300 22 129 6 289 17 355 26 200 25 437 89 449 120 8 21 38 18 34 -3 -2 -10
-28 -30 -58 -44 -30 -15 -60 -32 -67 -38 -7 -6 -14 -11 -17 -11 -3 0 -31 -12
-62 -26 -108 -49 -373 -115 -639 -159 -109 -18 -272 -58 -413 -100 -145 -44
-218 -50 -287 -24 -43 16 -54 26 -73 64 -12 25 -22 54 -22 65 0 23 38 123 50
130 4 3 16 22 27 42 11 21 49 67 84 102 59 59 79 75 79 61z m-1078 -3687 c32
-7 58 -17 58 -24 0 -18 -21 -23 -50 -12 -52 20 -235 22 -344 3 -98 -17 -136
-16 -136 3 0 4 26 13 58 20 31 6 66 13 77 16 46 9 283 5 337 -6z m9736 -38
c16 -14 24 -34 29 -72 5 -47 17 -102 39 -176 8 -28 -30 -88 -66 -101 -14 -5
-46 -11 -72 -14 -25 -2 -67 -14 -92 -27 -64 -30 -152 -50 -165 -37 -16 16 -14
30 15 115 40 120 86 223 98 219 9 -3 57 47 68 71 6 13 73 41 98 41 14 0 35 -8
48 -19z m-9588 -30 c8 -5 12 -11 9 -14 -3 -3 -14 1 -25 9 -21 16 -8 20 16 5z
m-235 -100 c4 -6 -2 -9 -14 -7 -29 4 -39 17 -13 17 11 0 24 -5 27 -10z m212
-123 c8 -16 12 -34 10 -40 -2 -7 -13 7 -25 30 -12 23 -26 44 -32 48 -5 3 -10
11 -10 17 0 16 40 -23 57 -55z m-47 -7 c0 -5 -2 -10 -4 -10 -3 0 -8 5 -11 10
-3 6 -1 10 4 10 6 0 11 -4 11 -10z m350 -14 c0 -3 -4 -8 -10 -11 -5 -3 -10 -1
-10 4 0 6 5 11 10 11 6 0 10 -2 10 -4z m99 -23 c31 -27 40 -56 22 -68 -11 -6
-61 62 -61 82 0 18 4 17 39 -14z m-419 -23 c0 -11 5 -20 10 -20 6 0 10 -7 10
-15 0 -8 -4 -15 -8 -15 -17 0 -44 39 -39 55 9 22 27 19 27 -5z m417 -132 c-3
-8 -6 -5 -6 6 -1 11 2 17 5 13 3 -3 4 -12 1 -19z m-37 -47 c0 -10 -24 -21 -46
-21 -20 0 -17 18 4 23 29 8 42 7 42 -2z m-258 -103 l-9 -63 -2 75 c-1 54 2 71
10 63 8 -8 8 -30 1 -75z"/>
<path d="M9060 13555 c0 -9 5 -15 11 -13 6 2 11 8 11 13 0 5 -5 11 -11 13 -6
2 -11 -4 -11 -13z"/>
<path d="M9014 13251 c-6 -21 -11 -22 -45 -17 -30 5 -39 3 -39 -8 0 -18 -19
-25 -58 -20 -18 2 -32 -1 -32 -6 0 -6 -5 -10 -11 -10 -5 0 -24 -13 -42 -30
-18 -16 -39 -30 -49 -30 -9 0 -18 -3 -20 -8 -1 -4 -41 -18 -88 -31 -47 -13
-109 -35 -139 -48 -29 -12 -64 -23 -78 -23 -13 0 -35 -7 -48 -16 -14 -9 -51
-17 -84 -19 -58 -3 -89 -20 -104 -56 -4 -11 -6 -11 -6 -1 -1 18 -21 5 -21 -14
0 -8 -9 -24 -20 -36 -11 -12 -20 -30 -20 -40 0 -10 -7 -18 -15 -18 -9 0 -15
-9 -15 -25 0 -24 -8 -30 -40 -25 -11 1 -10 -2 4 -13 18 -13 18 -14 -4 -20 -15
-4 -21 -11 -17 -21 4 -10 1 -16 -8 -16 -8 0 -15 8 -16 18 0 13 -2 14 -6 2 -3
-8 -12 -23 -21 -32 -14 -17 -13 -18 16 -18 25 0 32 -4 32 -20 0 -11 -4 -20
-10 -20 -12 0 -4 -110 9 -123 5 -5 7 -16 4 -23 -3 -8 0 -14 7 -14 6 0 8 -5 5
-10 -3 -6 1 -17 9 -26 9 -9 14 -19 11 -24 -3 -4 2 -10 10 -14 8 -3 15 -11 15
-19 0 -7 14 -29 30 -47 17 -18 30 -39 30 -46 0 -7 9 -15 19 -19 26 -8 42 -49
54 -138 1 -9 7 -18 12 -18 6 0 19 -8 29 -17 11 -9 16 -11 12 -4 -4 6 -2 12 3
12 6 0 11 -5 11 -10 0 -7 13 -8 35 -4 29 5 34 4 30 -9 -4 -9 1 -16 14 -20 12
-3 21 -1 21 4 0 15 27 10 34 -6 3 -8 9 -15 13 -14 31 5 55 -2 49 -16 -4 -12 0
-14 22 -9 15 4 29 8 31 10 2 2 16 -5 31 -16 16 -11 33 -20 40 -20 6 0 8 -6 4
-12 -5 -10 -4 -10 6 -1 7 6 20 9 29 6 9 -4 5 3 -9 15 -20 17 -21 21 -8 22 9 0
18 -6 21 -12 2 -9 22 -12 57 -11 40 2 56 7 67 23 8 11 19 18 24 14 6 -3 20 5
32 18 22 24 94 55 104 45 2 -3 13 2 24 11 11 9 23 17 27 18 4 0 14 4 22 7 8 3
53 18 100 33 74 23 172 70 338 161 23 12 49 23 57 23 9 0 15 10 15 26 0 19 4
25 15 20 8 -3 15 0 15 6 0 6 8 4 18 -5 17 -15 19 -15 34 2 9 11 15 22 12 25
-2 3 1 2 7 -3 15 -12 101 8 119 28 16 17 20 45 8 56 -4 4 -2 18 3 32 6 18 5
35 -7 61 -35 83 -57 122 -70 122 -7 0 -18 16 -24 35 -6 19 -16 35 -21 35 -5 0
-9 11 -9 25 0 14 -6 25 -13 25 -14 0 -71 62 -68 74 0 3 -8 15 -19 26 -11 11
-21 27 -21 35 -1 8 -2 18 -3 23 -2 11 -86 96 -86 87 0 -5 -8 -1 -17 7 -15 13
-46 27 -75 34 -5 1 -9 2 -10 4 -2 1 -16 3 -32 4 -16 1 -31 7 -34 14 -2 7 -14
12 -28 12 -14 0 -39 15 -60 35 -25 25 -42 34 -55 30 -11 -4 -19 -2 -19 4 0 6
-5 11 -11 11 -7 0 -18 8 -25 18 -13 16 -14 15 -20 -7z m93 -701 c29 -22 26
-25 -11 -10 -14 5 -26 14 -26 20 0 15 9 12 37 -10z m-262 -10 c0 -8 -8 -16
-17 -18 -13 -2 -18 3 -18 18 0 15 5 20 18 18 9 -2 17 -10 17 -18z m345 -11 c0
-5 -4 -9 -10 -9 -5 0 -10 7 -10 16 0 8 5 12 10 9 6 -3 10 -10 10 -16z m-182
-171 c-3 -7 -13 -15 -24 -17 -16 -3 -17 -1 -5 13 16 19 34 21 29 4z m-92 -48
c-38 -19 -87 -28 -72 -13 10 11 68 30 91 31 13 1 5 -6 -19 -18z"/>
<path d="M8870 13230 c-8 -5 -10 -10 -5 -10 6 0 17 5 25 10 8 5 11 10 5 10 -5
0 -17 -5 -25 -10z"/>
<path d="M7487 12687 c-9 -30 -17 -65 -17 -78 0 -13 -9 -44 -20 -68 -11 -24
-18 -46 -15 -49 12 -12 63 127 68 186 3 34 4 62 3 62 -1 0 -10 -24 -19 -53z"/>
<path d="M7967 12654 c-8 -8 1 -24 14 -24 5 0 9 7 9 15 0 15 -12 20 -23 9z"/>
<path d="M7970 12590 c0 -5 5 -10 11 -10 5 0 7 5 4 10 -3 6 -8 10 -11 10 -2 0
-4 -4 -4 -10z"/>
<path d="M7635 12481 c-5 -22 -12 -29 -28 -29 -12 1 -27 5 -34 10 -17 13 -62
-2 -68 -23 -4 -10 -11 -19 -16 -19 -5 0 -9 -18 -9 -39 0 -22 -4 -43 -10 -46
-5 -3 -10 -17 -10 -31 0 -13 -4 -24 -10 -24 -5 0 -10 -20 -10 -43 0 -24 -7
-58 -16 -75 -14 -30 -14 -33 7 -61 23 -32 37 -101 20 -101 -6 0 -8 -28 -5 -70
2 -38 0 -70 -4 -70 -14 0 -32 23 -34 44 -1 12 -5 -26 -9 -84 -4 -58 -11 -121
-14 -140 -6 -31 -3 -28 24 23 17 32 31 71 31 88 0 17 5 29 13 29 13 0 40 34
130 160 25 36 95 117 156 180 98 102 131 150 101 150 -5 0 -12 15 -16 34 -3
19 -14 42 -25 52 -10 9 -16 21 -13 25 3 5 -1 9 -9 9 -7 0 -24 11 -37 25 -13
14 -29 25 -37 25 -7 0 -13 5 -13 11 0 5 -4 8 -9 4 -5 -3 -12 -1 -16 5 -11 18
-23 10 -30 -19z"/>
<path d="M11879 12181 c-77 -30 -187 -119 -216 -176 -25 -47 -42 -120 -32
-138 6 -10 5 -18 -2 -22 -10 -7 46 -65 63 -65 4 0 8 -6 8 -14 0 -24 50 -76 73
-76 30 0 88 37 82 52 -2 7 -6 38 -9 69 -7 72 -18 99 -55 134 -27 26 -34 54
-10 39 6 -3 10 0 8 7 -3 29 2 37 37 54 62 29 119 5 151 -65 71 -154 92 -202
106 -245 47 -151 32 -557 -24 -654 -11 -18 -18 -36 -15 -38 5 -6 45 67 63 117
7 19 20 69 28 110 24 126 34 169 49 218 40 128 60 257 58 382 -1 71 -37 153
-95 217 -101 110 -168 133 -268 94z"/>
<path d="M7382 12010 c0 -14 2 -19 5 -12 2 6 2 18 0 25 -3 6 -5 1 -5 -13z"/>
<path d="M7392 11950 c0 -14 2 -19 5 -12 2 6 2 18 0 25 -3 6 -5 1 -5 -13z"/>
<path d="M9420 11894 c0 -17 22 -14 28 4 2 7 -3 12 -12 12 -9 0 -16 -7 -16
-16z"/>
<path d="M8540 11853 c-14 -7 -21 -13 -17 -13 4 0 3 -8 -2 -18 -7 -13 -7 -22
0 -29 8 -8 7 -13 0 -17 -6 -4 -11 -3 -11 3 0 6 -7 8 -15 5 -11 -4 -12 -11 -5
-23 6 -12 5 -22 -3 -31 -10 -10 -9 -12 5 -7 11 4 19 0 23 -14 8 -23 25 -26 25
-3 0 8 5 12 10 9 6 -3 10 -15 10 -26 0 -11 4 -17 10 -14 6 4 7 -1 3 -10 -5
-15 -3 -15 15 -4 12 7 24 10 28 6 10 -9 4 -14 -27 -22 -21 -5 -27 -2 -32 15
-5 19 -8 20 -20 9 -8 -8 -13 -17 -10 -21 2 -5 -3 -8 -11 -8 -9 0 -16 6 -16 12
0 7 -7 2 -16 -10 -8 -12 -20 -19 -26 -16 -7 5 -9 -2 -4 -19 6 -25 5 -25 -25
-17 -18 5 -40 17 -51 26 -17 17 -18 16 -15 -4 2 -12 6 -25 10 -28 4 -4 7 -19
7 -33 0 -19 -3 -22 -12 -13 -20 20 -31 13 -24 -15 14 -58 17 -122 7 -161 -12
-43 -37 -62 -45 -34 -4 10 -14 18 -23 19 -56 4 -183 54 -183 72 0 6 -7 11 -15
11 -8 0 -15 5 -15 10 0 6 -8 10 -18 10 -10 0 -24 6 -30 13 -7 6 -16 12 -20 12
-21 2 -82 28 -82 35 0 17 -38 29 -110 35 -40 3 -80 10 -90 15 -9 5 -20 6 -24
3 -4 -4 -43 -8 -88 -9 -72 -2 -84 -5 -100 -26 -9 -12 -18 -28 -18 -35 0 -7
-12 -29 -26 -50 -22 -33 -25 -46 -22 -96 3 -32 9 -62 14 -65 5 -4 17 -17 27
-29 15 -17 16 -25 7 -40 -28 -44 84 -189 189 -246 28 -16 51 -26 51 -23 0 3
-9 20 -19 37 -13 21 -17 42 -14 68 3 21 0 48 -6 60 -17 31 1 26 38 -13 40 -42
62 -118 64 -232 1 -57 6 -84 14 -84 6 0 14 -4 17 -9 4 -5 -4 -7 -16 -4 l-23 5
23 -21 c13 -11 23 -24 23 -28 1 -4 4 -14 8 -22 6 -10 10 -9 15 5 10 26 8 190
-3 247 -5 27 -7 57 -4 67 5 20 33 36 33 20 0 -20 36 -50 60 -50 18 0 21 -3 11
-9 -32 -20 15 -79 69 -84 28 -3 33 -8 36 -32 5 -45 12 -55 39 -55 17 0 24 -4
19 -11 -4 -8 1 -9 16 -4 21 7 22 5 15 -27 -8 -41 -19 -49 -121 -98 -45 -22
-104 -60 -132 -85 -27 -25 -59 -45 -71 -45 -11 0 -39 -8 -60 -17 -45 -19 -71
-70 -71 -136 0 -45 39 -169 51 -161 5 3 9 11 9 18 0 29 71 106 116 126 55 24
71 25 54 5 -10 -12 -10 -15 3 -15 9 0 22 9 31 21 15 22 60 49 81 49 7 0 15 4
17 9 2 5 14 11 28 13 23 3 25 0 28 -44 2 -36 0 -48 -11 -48 -7 0 -20 -11 -27
-25 -7 -13 -16 -22 -20 -20 -4 3 -10 -4 -13 -15 -4 -15 -14 -20 -36 -20 -17 0
-31 -4 -31 -10 0 -5 -5 -10 -11 -10 -6 0 -24 -11 -41 -25 -16 -14 -35 -25 -42
-25 -7 0 -25 -11 -39 -25 -26 -27 -26 -48 1 -117 11 -28 58 -49 71 -32 14 20
48 32 63 23 11 -6 19 -5 23 1 10 17 25 11 25 -9 0 -12 9 -20 25 -23 21 -5 25
-2 20 13 -4 10 0 25 7 32 11 12 15 12 25 -2 11 -14 12 -14 13 0 0 8 11 25 24
38 l23 22 14 -22 c13 -20 16 -20 30 -6 9 8 27 15 40 15 39 1 93 14 108 26 11
9 13 7 7 -12 -5 -14 -3 -22 4 -22 14 0 45 -30 53 -52 4 -10 15 -18 26 -18 29
0 35 18 9 23 -21 5 -20 5 2 4 15 -1 25 -8 25 -17 0 -17 15 -31 27 -24 4 3 0
17 -9 32 -9 15 -13 24 -9 20 5 -4 14 -2 21 5 9 9 6 17 -16 36 -22 20 -26 28
-18 43 6 10 15 16 21 12 7 -4 6 -9 -3 -15 -13 -8 -8 -11 19 -8 4 0 10 -10 13
-23 6 -21 7 -22 14 -4 6 13 3 21 -8 28 -26 14 -20 29 9 24 30 -6 44 -17 28
-23 -15 -5 -5 -55 10 -50 6 2 10 18 8 36 -3 29 -1 32 16 27 16 -5 23 0 33 24
8 16 21 30 29 31 8 0 32 23 53 50 29 38 41 48 51 40 7 -6 15 -8 19 -5 3 3 8
-4 12 -15 3 -12 14 -21 23 -21 9 0 28 -12 41 -26 13 -14 19 -24 13 -22 -6 2
-17 -6 -25 -16 -14 -19 -15 -18 -45 12 -39 40 -69 42 -78 5 -3 -16 -7 -33 -9
-39 -2 -6 2 -17 8 -23 8 -8 5 -11 -11 -11 -12 0 -22 -6 -22 -14 0 -24 16 -26
38 -6 23 21 37 27 27 10 -3 -5 -2 -17 3 -26 8 -15 10 -15 15 1 10 24 24 11 31
-30 4 -20 13 -35 21 -35 7 0 15 -5 17 -12 2 -6 10 -8 17 -4 9 6 3 16 -20 37
-18 16 -31 30 -28 31 39 24 44 25 62 5 l18 -21 6 23 c3 12 11 20 17 18 7 -3
12 4 12 14 0 11 -4 19 -8 19 -18 0 -2 39 19 43 12 2 20 0 17 -4 -3 -5 0 -9 5
-9 6 0 11 4 11 8 0 5 13 7 30 4 19 -3 32 -12 36 -25 7 -21 7 -21 16 2 6 17 14
22 28 18 11 -3 23 -1 26 4 3 5 9 7 14 4 5 -3 14 3 20 12 10 16 11 16 6 1 -6
-19 9 -34 19 -19 3 6 -3 19 -14 30 -11 11 -23 32 -27 46 -3 14 -10 25 -14 25
-5 0 -7 8 -5 18 1 9 -1 22 -6 27 -4 6 -9 31 -11 55 -2 36 -7 45 -20 44 -14 -1
-16 4 -12 21 4 18 1 25 -16 30 -15 5 -19 12 -15 25 3 10 2 21 -4 24 -5 3 -12
24 -16 46 -4 22 -11 40 -17 40 -5 0 -8 6 -6 12 3 7 -1 19 -8 26 -7 7 -11 21
-9 32 5 27 -3 25 -16 -2 -7 -19 -8 -16 -4 15 4 23 2 37 -5 37 -5 0 -10 -9 -10
-20 0 -29 -17 -24 -35 10 -18 34 -19 66 -4 76 8 4 7 9 -2 15 -11 6 -11 11 -2
20 7 7 8 18 3 28 -5 9 -11 28 -14 42 -7 32 -36 48 -36 19 0 -28 -20 -36 -27
-10 -4 13 -11 19 -20 16 -14 -6 -41 11 -100 61 -14 13 -30 20 -35 17 -5 -3
-15 1 -21 9 -14 17 -60 31 -50 14 4 -6 0 -8 -10 -4 -23 9 -47 -2 -47 -22 0
-13 -2 -14 -9 -1 -6 8 -7 18 -5 22 3 4 0 8 -5 8 -6 0 -11 -4 -11 -10 0 -5 -7
-10 -15 -10 -8 0 -12 6 -9 14 3 8 -3 16 -15 19 -14 3 -18 1 -14 -9 3 -8 -1
-14 -10 -14 -8 0 -18 8 -21 17 -4 10 -10 13 -14 8 -4 -6 -17 -16 -29 -23 -19
-10 -27 -10 -43 0 -11 7 -20 18 -20 25 0 7 -6 13 -14 13 -27 0 -27 20 0 56 22
28 32 34 52 29 17 -4 22 -2 16 6 -5 9 -2 10 9 6 10 -4 14 -2 11 6 -4 12 39 37
65 37 8 0 23 8 33 17 13 12 18 13 16 4 -2 -7 3 -16 10 -18 6 -3 12 2 12 11 0
10 6 13 15 10 19 -8 19 -3 0 32 -17 33 -2 47 19 18 8 -11 21 -15 35 -11 14 3
21 1 21 -8 0 -8 4 -16 9 -19 5 -4 7 3 4 14 -4 16 0 20 23 21 16 1 35 1 42 0 6
-1 12 3 12 9 0 6 5 8 11 5 6 -4 9 0 7 11 -2 11 3 19 12 20 38 3 42 5 36 19 -4
12 0 14 19 9 15 -4 25 -2 25 5 0 6 -5 11 -12 11 -6 0 -8 3 -5 7 4 3 0 17 -8
30 -14 21 -14 24 -1 29 14 5 14 8 0 22 -9 8 -14 25 -11 39 2 12 -1 24 -7 24
-27 3 -31 5 -31 14 0 6 14 9 30 8 l30 -2 -27 11 c-15 6 -31 23 -37 37 -25 69
-25 68 -29 39 -4 -33 -17 -37 -25 -7 -3 12 -10 18 -16 14 -6 -3 -9 -11 -6 -16
4 -5 1 -9 -4 -9 -6 0 -14 -1 -18 -2 -5 -2 -7 13 -5 33 2 26 -1 38 -12 42 -19
8 -21 43 -3 50 8 4 8 8 2 14 -5 4 -11 19 -13 33 -1 14 -7 27 -12 28 -6 2 -8 8
-4 13 3 5 1 9 -5 9 -5 0 -11 6 -13 13 -2 11 -8 11 -28 0z m20 -27 c0 -2 -7 -6
-15 -10 -8 -3 -15 -1 -15 4 0 6 7 10 15 10 8 0 15 -2 15 -4z m-53 -202 c-3 -3
-12 -4 -19 -1 -8 3 -5 6 6 6 11 1 17 -2 13 -5z m8 -104 c3 -5 1 -10 -4 -10 -6
0 -11 5 -11 10 0 6 2 10 4 10 3 0 8 -4 11 -10z m-801 -268 c-22 -5 -64 18 -64
34 0 8 13 5 40 -9 26 -15 34 -23 24 -25z m686 22 c0 -8 -5 -12 -10 -9 -6 4 -8
11 -5 16 9 14 15 11 15 -7z m-50 -84 c0 -5 -4 -10 -10 -10 -5 0 -10 5 -10 10
0 6 5 10 10 10 6 0 10 -4 10 -10z m687 -732 c-3 -8 -6 -5 -6 6 -1 11 2 17 5
13 3 -3 4 -12 1 -19z m-797 2 c0 -5 -2 -10 -4 -10 -3 0 -8 5 -11 10 -3 6 -1
10 4 10 6 0 11 -4 11 -10z m480 -1 c39 -8 50 -15 50 -30 0 -10 -5 -19 -12 -19
-6 0 -8 3 -5 7 12 11 -33 36 -46 25 -24 -19 -107 -9 -107 14 0 17 48 19 120 3z
m-234 -9 c9 0 12 -5 9 -10 -4 -6 -10 -8 -15 -5 -10 6 -32 -29 -25 -39 3 -3 2
-4 -1 -1 -4 2 -8 18 -9 35 -2 24 1 30 12 26 8 -3 21 -6 29 -6z m-89 -16 c-3
-3 -12 -4 -19 -1 -8 3 -5 6 6 6 11 1 17 -2 13 -5z m-247 -54 c0 -5 -4 -10 -10
-10 -5 0 -10 5 -10 10 0 6 5 10 10 10 6 0 10 -4 10 -10z m643 -17 c-7 -2 -19
-2 -25 0 -7 3 -2 5 12 5 14 0 19 -2 13 -5z m83 -81 c6 -4 13 -15 17 -24 3 -10
15 -18 26 -18 29 0 34 -15 5 -18 -15 -1 -27 5 -31 14 -3 8 -16 20 -29 25 -13
4 -24 13 -24 19 0 12 20 13 36 2z m104 -43 c0 -6 -4 -7 -10 -4 -5 3 -10 11
-10 16 0 6 5 7 10 4 6 -3 10 -11 10 -16z m-400 1 c0 -5 9 -10 19 -10 10 0 22
-7 25 -16 5 -14 4 -15 -9 -4 -13 11 -19 10 -35 -5 -11 -10 -20 -13 -20 -7 0 7
5 12 10 12 6 0 10 5 10 10 0 6 -7 10 -16 10 -8 0 -12 5 -9 10 3 6 10 10 16 10
5 0 9 -4 9 -10z m540 -10 c0 -5 -5 -10 -11 -10 -5 0 -7 5 -4 10 3 6 8 10 11
10 2 0 4 -4 4 -10z m-595 -11 c11 -17 -1 -21 -15 -4 -8 9 -8 15 -2 15 6 0 14
-5 17 -11z m-72 -102 c-2 -4 -9 -5 -14 -2 -5 4 -9 2 -9 -4 0 -5 8 -12 18 -14
9 -3 2 -5 -16 -6 -20 -1 -31 3 -27 9 3 6 1 10 -5 10 -6 0 -9 4 -6 9 3 5 19 8
35 7 16 0 27 -4 24 -9z"/>
<path d="M8690 11810 c0 -5 5 -10 10 -10 6 0 10 5 10 10 0 6 -4 10 -10 10 -5
0 -10 -4 -10 -10z"/>
<path d="M11428 11755 c-3 -46 -1 -49 26 -39 22 8 20 25 -1 18 -15 -5 -16 -4
-3 5 17 12 20 31 7 49 -17 22 -25 13 -29 -33z"/>
<path d="M8630 11746 c0 -2 7 -7 16 -10 8 -3 12 -2 9 4 -6 10 -25 14 -25 6z"/>
<path d="M11455 11700 c-3 -5 -1 -10 4 -10 6 0 11 5 11 10 0 6 -2 10 -4 10 -3
0 -8 -4 -11 -10z"/>
<path d="M11549 11683 c-15 -37 -13 -205 2 -251 6 -20 27 -65 46 -99 20 -36
36 -82 40 -112 3 -28 10 -51 15 -51 5 0 7 -3 5 -7 -2 -5 8 -30 22 -58 24 -47
29 -51 76 -58 59 -10 138 15 195 62 l35 30 0 93 c0 85 -3 97 -30 143 -16 28
-31 57 -32 65 -1 8 -11 22 -22 32 -12 9 -21 19 -21 23 0 20 -127 124 -164 135
-23 6 -64 27 -93 46 -28 19 -54 34 -57 34 -4 0 -11 -12 -17 -27z"/>
<path d="M8710 11678 c0 -4 7 -8 15 -8 8 0 15 4 15 8 0 5 -7 9 -15 9 -8 0 -15
-4 -15 -9z"/>
<path d="M8740 11640 c0 -5 5 -10 10 -10 6 0 10 5 10 10 0 6 -4 10 -10 10 -5
0 -10 -4 -10 -10z"/>
<path d="M9165 11519 c-4 -6 -5 -12 -2 -15 2 -3 7 2 10 11 7 17 1 20 -8 4z"/>
<path d="M9286 11464 c-20 -18 -32 -22 -39 -15 -6 6 -22 11 -36 11 -21 0 -23
-2 -11 -10 13 -9 13 -10 0 -10 -11 -1 -10 -4 5 -16 19 -15 18 -16 -22 -12 -23
2 -39 0 -34 -5 4 -4 17 -9 28 -10 17 -1 19 -4 10 -19 -9 -13 -8 -21 1 -30 9
-9 12 -8 12 5 0 9 7 17 15 17 9 0 12 -6 9 -15 -4 -8 -1 -15 6 -15 8 0 10 -9 6
-25 -4 -14 -2 -25 4 -25 5 0 10 9 10 19 0 11 5 23 10 26 6 3 10 -1 10 -10 0
-12 6 -15 20 -10 11 4 20 2 20 -4 0 -6 -7 -11 -15 -11 -8 0 -15 -6 -15 -12 0
-9 -4 -8 -10 2 -8 13 -10 12 -10 -4 0 -15 5 -17 28 -12 15 3 21 3 15 0 -23
-10 -13 -23 17 -22 31 1 40 12 18 21 -8 4 -7 6 4 6 9 1 19 -7 21 -16 4 -17 5
-17 6 0 0 9 8 17 16 17 8 0 15 9 15 20 0 12 7 20 18 20 22 0 48 17 39 26 -3 4
-13 1 -21 -5 -21 -18 -35 -6 -34 30 1 21 5 28 15 25 20 -8 15 2 -7 14 -11 6
-20 7 -19 3 4 -21 -2 -33 -16 -33 -8 0 -15 5 -15 11 0 5 5 7 12 3 7 -4 8 -3 4
4 -4 7 -17 12 -29 13 -21 0 -21 1 -2 8 11 5 24 6 29 3 5 -3 6 3 3 12 -4 10 -7
19 -7 22 0 2 -6 1 -14 -2 -11 -4 -13 0 -9 15 8 30 -24 27 -61 -5z m14 -108 c0
-3 -4 -8 -10 -11 -5 -3 -10 -1 -10 4 0 6 5 11 10 11 6 0 10 -2 10 -4z"/>
<path d="M11471 11419 c-1 -60 -5 -82 -21 -102 -26 -33 -25 -57 5 -117 29 -56
31 -89 10 -129 l-14 -29 34 8 c18 4 49 17 67 28 18 11 39 17 46 15 21 -8 14
19 -28 102 -22 44 -40 89 -40 100 0 11 -9 31 -20 45 -12 16 -20 42 -20 70 -2
83 -19 91 -19 9z"/>
<path d="M9140 11375 c7 -8 17 -12 22 -9 6 4 5 10 -3 15 -22 14 -33 10 -19 -6z"/>
<path d="M7398 11305 c11 -22 25 -57 32 -78 6 -21 14 -36 17 -33 8 8 -26 99
-48 126 l-20 25 19 -40z"/>
<path d="M9476 11260 c-11 -67 -7 -90 16 -99 54 -20 83 10 58 61 -10 20 -15
39 -12 42 3 4 -2 6 -11 6 -9 0 -14 6 -11 13 3 8 -3 13 -15 13 -14 0 -21 -9
-25 -36z"/>
<path d="M9446 11215 c-3 -8 -1 -15 4 -15 6 0 10 7 10 15 0 8 -2 15 -4 15 -2
0 -6 -7 -10 -15z"/>
<path d="M7470 11143 c0 -6 7 -16 14 -23 8 -6 22 -45 31 -86 18 -78 35 -90 35
-22 0 30 -8 51 -32 82 -45 58 -48 62 -48 49z"/>
<path d="M8353 11075 c-3 -9 -3 -18 0 -21 9 -9 27 6 27 22 0 19 -19 18 -27 -1z"/>
<path d="M11280 10997 c0 -33 68 -103 110 -112 17 -4 33 -5 36 -2 11 10 -10
35 -46 56 -22 12 -43 27 -47 34 -5 7 -18 21 -30 31 -23 19 -23 19 -23 -7z"/>
<path d="M11980 10992 c-8 -3 -33 -20 -54 -39 -22 -18 -44 -33 -50 -33 -6 0
-29 -16 -51 -35 -63 -54 -13 -45 76 14 81 54 129 110 79 93z"/>
<path d="M10160 10960 c0 -5 5 -10 10 -10 6 0 10 5 10 10 0 6 -4 10 -10 10 -5
0 -10 -4 -10 -10z"/>
<path d="M10200 10950 c-12 -10 -27 -21 -32 -22 -6 -2 -13 -28 -16 -58 -4 -46
-3 -52 11 -47 9 3 19 2 21 -2 13 -21 53 2 69 40 24 55 22 84 -7 97 -20 9 -28
7 -46 -8z"/>
<path d="M11449 10943 c-11 -13 -12 -17 -1 -21 7 -2 25 -15 39 -28 26 -24 44
-30 56 -18 10 11 -26 75 -40 70 -7 -3 -13 -1 -13 4 0 16 -26 11 -41 -7z"/>
<path d="M7986 10844 c-9 -22 -8 -24 9 -24 8 0 15 6 15 14 0 22 -17 28 -24 10z"/>
<path d="M9916 10851 c-4 -7 -5 -15 -2 -18 9 -9 19 4 14 18 -4 11 -6 11 -12 0z"/>
<path d="M7707 10813 c-4 -3 -7 -11 -7 -17 0 -6 5 -5 12 2 6 6 9 14 7 17 -3 3
-9 2 -12 -2z"/>
<path d="M8910 10785 c0 -9 5 -15 11 -13 6 2 11 8 11 13 0 5 -5 11 -11 13 -6
2 -11 -4 -11 -13z"/>
<path d="M11176 10743 c-22 -49 -24 -118 -7 -190 10 -41 17 -53 32 -53 19 0
50 -14 79 -36 36 -28 144 3 168 47 20 35 73 66 202 118 125 51 215 95 224 110
13 21 -14 20 -41 -1 -50 -40 -194 -101 -217 -92 -7 3 -29 -2 -49 -11 -30 -13
-49 -13 -102 -5 -71 11 -88 18 -155 58 -97 58 -110 67 -112 82 -2 8 -11 -4
-22 -27z"/>
<path d="M7677 10728 c-3 -18 -12 -63 -21 -100 -8 -36 -17 -93 -19 -127 -4
-72 -12 -85 -25 -40 -10 32 -10 31 -10 -21 0 -67 15 -178 28 -199 7 -11 9 13
6 72 -3 49 0 87 5 87 5 0 9 26 9 58 1 31 8 89 16 127 8 39 18 86 21 105 3 19
15 43 27 52 l21 18 -26 0 c-23 0 -28 -5 -32 -32z"/>
<path d="M7576 10550 c3 -14 11 -32 16 -40 6 -10 7 -7 2 10 -3 14 -11 32 -16
40 -6 10 -7 7 -2 -10z"/>
<path d="M10695 10360 c-3 -5 -1 -10 4 -10 6 0 11 5 11 10 0 6 -2 10 -4 10 -3
0 -8 -4 -11 -10z"/>
<path d="M9190 10324 c0 -14 3 -14 15 -4 8 7 15 14 15 16 0 2 -7 4 -15 4 -8 0
-15 -7 -15 -16z"/>
<path d="M8745 10290 c3 -5 8 -10 11 -10 2 0 4 5 4 10 0 6 -5 10 -11 10 -5 0
-7 -4 -4 -10z"/>
<path d="M9430 10284 c0 -8 5 -12 10 -9 6 3 10 10 10 16 0 5 -4 9 -10 9 -5 0
-10 -7 -10 -16z"/>
<path d="M9953 10280 c-1 -11 2 -20 8 -20 5 0 9 9 9 20 0 11 -4 20 -8 20 -4 0
-8 -9 -9 -20z"/>
<path d="M10290 10209 c0 -5 5 -7 10 -4 6 3 10 8 10 11 0 2 -4 4 -10 4 -5 0
-10 -5 -10 -11z"/>
<path d="M7704 10165 c-4 -27 -1 -63 6 -88 6 -23 15 -55 19 -72 l7 -30 7 31
c3 18 1 49 -5 70 -5 21 -8 60 -5 86 5 37 3 48 -8 48 -9 0 -16 -17 -21 -45z"/>
<path d="M8676 10200 c-19 -6 -19 -7 2 -12 12 -4 24 -2 27 2 8 13 -8 18 -29
10z"/>
<path d="M9789 10132 c8 -16 7 -21 -6 -26 -9 -4 -20 -1 -24 6 -19 31 -29 -46
-10 -81 7 -13 10 -36 7 -53 -4 -20 -1 -35 9 -45 9 -8 15 -10 15 -3 0 6 4 9 9
5 18 -11 4 75 -14 89 -11 8 -16 20 -12 29 3 9 1 18 -6 21 -8 3 -7 5 3 5 8 1
24 -11 37 -26 18 -22 22 -24 23 -10 0 9 5 17 10 17 6 0 10 7 10 15 0 8 -6 15
-14 15 -8 0 -16 12 -18 27 -2 14 -9 28 -16 31 -11 3 -12 0 -3 -16z"/>
<path d="M9000 10134 c0 -3 6 -12 14 -20 18 -18 26 -18 26 0 0 8 -7 17 -16 20
-19 7 -24 8 -24 0z"/>
<path d="M8657 10100 c-9 -11 -13 -20 -9 -20 10 1 42 26 42 34 0 12 -16 6 -33
-14z"/>
<path d="M7651 10075 c0 -22 6 -53 14 -70 17 -38 17 -25 1 50 -13 56 -14 58
-15 20z"/>
<path d="M8347 10093 c-4 -3 -7 -11 -7 -17 0 -6 5 -5 12 2 6 6 9 14 7 17 -3 3
-9 2 -12 -2z"/>
<path d="M8607 10094 c-3 -4 1 -20 9 -37 11 -20 19 -26 23 -18 4 7 18 13 29
14 21 1 32 27 12 27 -5 0 -10 -4 -10 -10 0 -5 -9 -10 -20 -10 -13 0 -20 7 -20
20 0 20 -11 26 -23 14z"/>
<path d="M8555 10080 c19 -8 19 -9 -2 -9 -22 -1 -34 -31 -13 -31 6 0 10 5 10
10 0 6 7 10 16 10 10 0 14 -6 11 -14 -4 -10 -1 -13 9 -9 31 12 1 54 -38 52 -7
0 -4 -4 7 -9z"/>
<path d="M8700 10061 c0 -5 7 -14 15 -21 13 -10 15 -9 15 9 0 12 -6 21 -15 21
-8 0 -15 -4 -15 -9z"/>
<path d="M8361 10048 c-1 -23 18 -33 32 -18 9 10 8 12 -5 7 -11 -4 -18 0 -21
11 -4 16 -5 16 -6 0z"/>
<path d="M8945 10051 c-3 -5 -1 -12 5 -16 5 -3 10 1 10 9 0 18 -6 21 -15 7z"/>
<path d="M8975 10050 c-3 -5 -1 -10 4 -10 6 0 11 5 11 10 0 6 -2 10 -4 10 -3
0 -8 -4 -11 -10z"/>
<path d="M9040 10040 c-6 -11 -8 -25 -5 -30 8 -13 45 -13 45 0 0 6 -7 10 -15
10 -18 0 -19 12 -3 28 9 9 9 12 0 12 -6 0 -16 -9 -22 -20z"/>
<path d="M9827 9982 c6 -42 13 -56 13 -24 0 12 4 22 10 22 13 0 1 27 -15 33
-9 4 -11 -4 -8 -31z"/>
<path d="M8490 10006 c0 -3 5 -17 11 -33 8 -22 12 -24 19 -13 17 26 11 50 -10
50 -11 0 -20 -2 -20 -4z"/>
<path d="M9730 9991 c0 -12 5 -21 10 -21 6 0 10 6 10 14 0 8 -4 18 -10 21 -5
3 -10 -3 -10 -14z"/>
<path d="M8716 9991 c-4 -6 -2 -18 4 -26 10 -12 9 -15 -5 -15 -10 0 -15 -6
-13 -17 4 -23 28 -29 29 -6 0 17 1 17 8 -1 5 -14 10 -16 15 -8 4 7 5 16 1 21
-3 6 2 14 10 19 10 5 13 15 9 25 -8 22 -20 22 -29 0 -7 -17 -8 -17 -14 1 -5
14 -10 16 -15 7z"/>
<path d="M10350 9979 c0 -5 5 -7 10 -4 6 3 10 8 10 11 0 2 -4 4 -10 4 -5 0
-10 -5 -10 -11z"/>
<path d="M8988 9973 c7 -3 16 -2 19 1 4 3 -2 6 -13 5 -11 0 -14 -3 -6 -6z"/>
<path d="M9045 9950 c-3 -5 1 -10 10 -10 9 0 13 5 10 10 -3 6 -8 10 -10 10 -2
0 -7 -4 -10 -10z"/>
<path d="M9232 9916 c5 -35 18 -45 18 -13 0 14 -5 29 -10 32 -7 4 -10 -3 -8
-19z"/>
<path d="M9810 9920 c0 -5 7 -10 16 -10 8 0 12 5 9 10 -3 6 -10 10 -16 10 -5
0 -9 -4 -9 -10z"/>
<path d="M8806 9885 c4 -8 10 -15 15 -15 5 0 9 7 9 15 0 8 -7 15 -15 15 -9 0
-12 -6 -9 -15z"/>
<path d="M9007 9880 c-3 -13 0 -20 9 -20 8 0 14 9 14 20 0 11 -4 20 -9 20 -5
0 -11 -9 -14 -20z"/>
<path d="M9245 9850 c-3 -5 -1 -10 4 -10 6 0 11 5 11 10 0 6 -2 10 -4 10 -3 0
-8 -4 -11 -10z"/>
<path d="M9454 9849 c-3 -6 -1 -16 5 -22 8 -8 11 -5 11 11 0 24 -5 28 -16 11z"/>
<path d="M9070 9800 c0 -5 5 -10 11 -10 5 0 7 5 4 10 -3 6 -8 10 -11 10 -2 0
-4 -4 -4 -10z"/>
<path d="M9107 9733 c6 -2 13 -11 15 -18 2 -10 8 -12 18 -5 18 11 13 17 -20
23 -14 2 -20 2 -13 0z"/>
<path d="M9201 9727 c-16 -16 -14 -26 7 -25 9 0 24 -1 32 -3 8 -2 15 2 15 10
0 19 -40 32 -54 18z"/>
<path d="M8798 9708 c4 -15 7 -17 14 -6 8 10 11 10 15 0 6 -15 23 -6 23 12 0
7 -12 13 -29 14 -24 0 -28 -3 -23 -20z"/>
<path d="M8100 9599 c0 -5 5 -7 10 -4 6 3 10 8 10 11 0 2 -4 4 -10 4 -5 0 -10
-5 -10 -11z"/>
<path d="M7793 9545 c0 -33 2 -45 4 -27 2 18 2 45 0 60 -2 15 -4 0 -4 -33z"/>
<path d="M8070 9550 c0 -5 5 -10 11 -10 5 0 7 5 4 10 -3 6 -8 10 -11 10 -2 0
-4 -4 -4 -10z"/>
<path d="M10500 9525 c0 -9 5 -15 11 -13 6 2 11 8 11 13 0 5 -5 11 -11 13 -6
2 -11 -4 -11 -13z"/>
<path d="M10450 9359 c0 -5 5 -7 10 -4 6 3 10 8 10 11 0 2 -4 4 -10 4 -5 0
-10 -5 -10 -11z"/>
<path d="M10315 9259 c-4 -6 -5 -13 -2 -16 8 -7 47 7 47 18 0 13 -37 11 -45
-2z"/>
<path d="M10420 9240 c0 -5 5 -10 10 -10 6 0 10 5 10 10 0 6 -4 10 -10 10 -5
0 -10 -4 -10 -10z"/>
<path d="M10460 9219 c0 -5 5 -7 10 -4 6 3 10 8 10 11 0 2 -4 4 -10 4 -5 0
-10 -5 -10 -11z"/>
<path d="M10246 9211 c-4 -7 -5 -15 -2 -18 9 -9 19 4 14 18 -4 11 -6 11 -12 0z"/>
<path d="M9980 9157 c0 -10 -11 -22 -25 -27 -27 -10 -33 -20 -12 -20 6 0 23 9
37 20 20 15 23 21 13 31 -11 11 -13 10 -13 -4z"/>
<path d="M10330 9125 c0 -8 5 -15 10 -15 6 0 10 7 10 15 0 8 -4 15 -10 15 -5
0 -10 -7 -10 -15z"/>
<path d="M9890 9098 c0 -19 2 -20 10 -8 13 19 13 30 0 30 -5 0 -10 -10 -10
-22z"/>
<path d="M10212 9108 c-20 -20 -14 -27 12 -15 13 7 22 15 20 19 -7 11 -18 10
-32 -4z"/>
<path d="M9910 9075 c0 -8 7 -15 15 -15 8 0 15 7 15 15 0 8 -7 15 -15 15 -8 0
-15 -7 -15 -15z"/>
<path d="M10315 9080 c-4 -6 -10 -8 -15 -5 -5 3 -14 -4 -20 -15 -6 -11 -17
-20 -25 -20 -30 0 -14 -18 21 -25 41 -7 52 -2 36 18 -12 14 -4 32 18 39 10 3
11 6 3 11 -7 4 -14 3 -18 -3z"/>
<path d="M10313 8969 c-25 -9 -30 -19 -10 -19 15 0 43 17 37 23 -3 3 -15 1
-27 -4z"/>
<path d="M10040 8930 c0 -5 5 -10 10 -10 6 0 10 5 10 10 0 6 -4 10 -10 10 -5
0 -10 -4 -10 -10z"/>
<path d="M9920 8920 c0 -5 7 -10 15 -10 8 0 15 5 15 10 0 6 -7 10 -15 10 -8 0
-15 -4 -15 -10z"/>
<path d="M10273 8923 c-7 -3 -13 -12 -13 -21 0 -15 2 -15 17 1 18 18 16 27 -4
20z"/>
<path d="M9905 8822 c-9 -24 10 -35 34 -20 11 7 21 17 21 23 0 17 -48 14 -55
-3z"/>
<path d="M9880 8775 c0 -8 7 -15 15 -15 8 0 15 4 15 9 0 5 -7 11 -15 15 -9 3
-15 0 -15 -9z"/>
<path d="M8870 8690 c0 -5 6 -10 14 -10 8 0 18 5 21 10 3 6 -3 10 -14 10 -12
0 -21 -4 -21 -10z"/>
<path d="M8755 8660 c-4 -6 5 -10 19 -10 14 0 26 -5 26 -12 0 -6 3 -8 7 -4 5
4 -1 14 -11 22 -23 17 -33 18 -41 4z"/>
<path d="M8725 8630 c-3 -5 3 -10 14 -10 12 0 21 5 21 10 0 6 -6 10 -14 10 -8
0 -18 -4 -21 -10z"/>
<path d="M9800 8630 c0 -5 6 -10 14 -10 8 0 18 5 21 10 3 6 -3 10 -14 10 -12
0 -21 -4 -21 -10z"/>
<path d="M8807 8613 c-4 -3 -7 -11 -7 -17 0 -6 5 -5 12 2 6 6 9 14 7 17 -3 3
-9 2 -12 -2z"/>
<path d="M8605 8602 c-10 -10 -5 -22 9 -22 8 0 16 6 19 13 5 13 -17 19 -28 9z"/>
<path d="M9910 8580 c0 -5 5 -10 10 -10 6 0 10 5 10 10 0 6 -4 10 -10 10 -5 0
-10 -4 -10 -10z"/>
<path d="M9590 8540 c0 -5 5 -10 10 -10 6 0 10 5 10 10 0 6 -4 10 -10 10 -5 0
-10 -4 -10 -10z"/>
<path d="M9470 8510 c-12 -8 -9 -10 13 -10 15 0 27 5 27 10 0 13 -20 13 -40 0z"/>
<path d="M9677 8053 c-11 -10 -8 -25 3 -18 6 4 17 1 25 -5 12 -10 15 -9 15 9
0 20 -28 30 -43 14z"/>
<path d="M9636 8021 c-16 -18 -16 -19 8 -23 37 -7 50 5 28 25 -18 16 -20 16
-36 -2z"/>
<path d="M9130 7526 c0 -9 7 -16 16 -16 9 0 14 5 12 12 -6 18 -28 21 -28 4z"/>
<path d="M10041 7394 c0 -11 3 -14 6 -6 3 7 2 16 -1 19 -3 4 -6 -2 -5 -13z"/>
<path d="M10566 7385 c-11 -8 -16 -18 -13 -22 4 -3 16 3 27 15 23 25 15 29
-14 7z"/>
<path d="M8213 1540 c-1 -11 4 -20 13 -20 8 0 14 9 14 20 0 11 -6 20 -13 20
-7 0 -13 -9 -14 -20z"/>
<path d="M8210 1429 c0 -6 -7 -8 -16 -5 -9 4 -32 -3 -51 -14 -19 -11 -46 -21
-59 -22 -13 -1 -26 -8 -29 -16 -3 -9 -17 -12 -39 -11 -19 2 -38 0 -42 -4 -4
-4 4 -7 19 -7 36 0 45 -20 10 -22 -15 0 -34 -1 -40 -1 -18 1 -17 -3 18 -35 43
-40 31 -56 -32 -48 -30 4 -49 3 -49 -3 0 -11 -157 -7 -167 3 -4 3 -12 1 -19
-5 -27 -22 -309 -1 -351 26 -13 9 -45 37 -71 62 -26 26 -49 47 -52 48 -3 0
-14 6 -25 12 -16 9 -25 7 -44 -8 -18 -14 -19 -19 -7 -19 9 0 16 -5 16 -10 0
-6 7 -13 15 -16 8 -3 37 -27 66 -52 38 -35 83 -60 177 -100 123 -52 131 -54
236 -57 60 -3 111 -7 114 -10 3 -3 -5 -5 -18 -5 -20 0 -21 -2 -9 -17 12 -15
12 -16 -3 -10 -11 4 -15 2 -12 -6 6 -16 64 -49 64 -37 0 6 5 10 10 10 6 0 10
-5 10 -11 0 -17 98 -109 115 -109 9 0 15 -10 15 -25 0 -16 6 -25 15 -25 8 0
15 -6 15 -14 0 -11 32 -59 72 -106 7 -8 12 -18 10 -22 -1 -5 4 -8 12 -8 8 0
18 -9 21 -20 3 -11 14 -20 24 -20 15 0 18 7 15 41 -3 34 -1 40 14 37 10 -2 18
-14 20 -31 2 -15 8 -25 13 -22 10 7 14 -3 23 -52 4 -24 2 -33 -9 -33 -7 0 -16
12 -18 28 -4 26 -4 25 -6 -5 0 -17 -5 -34 -9 -37 -18 -11 -92 17 -107 40 -12
19 -19 22 -39 14 -17 -6 -30 -4 -45 6 -11 8 -26 12 -32 8 -6 -3 -15 0 -20 7
-5 8 -9 9 -9 3 0 -7 -19 -7 -57 -2 -32 5 -105 10 -163 12 -58 1 -115 8 -127
14 -27 15 -36 15 -28 2 4 -6 -6 -10 -22 -10 -41 0 -74 -11 -67 -22 4 -6 -2 -8
-12 -6 -11 2 -20 9 -20 16 -3 25 -5 27 -14 12 -8 -12 -10 -12 -10 -1 0 8 8 20
18 27 15 12 15 13 -8 8 -14 -2 -19 -2 -12 2 17 8 15 24 -3 24 -8 0 -15 7 -15
16 0 12 -7 15 -29 12 -23 -3 -28 -1 -27 16 1 14 -5 21 -16 20 -11 -1 -18 5
-18 15 0 12 -11 16 -48 17 -26 1 -51 -3 -55 -10 -6 -7 -7 -5 -4 5 4 13 -2 18
-23 21 -16 2 -27 1 -24 -4 3 -4 1 -8 -4 -8 -17 0 -23 32 -10 48 11 13 10 14
-8 4 -22 -12 -97 -5 -129 11 -21 11 -69 17 -158 20 -32 1 -61 7 -65 12 -4 6
-18 12 -32 13 -14 2 -29 10 -33 18 -10 17 -41 19 -32 2 4 -7 0 -5 -8 5 -13 16
-18 16 -36 5 -12 -7 -21 -23 -21 -36 0 -17 -8 -27 -30 -35 -16 -6 -30 -15 -30
-19 0 -4 -6 -8 -14 -8 -8 0 -17 -9 -21 -19 -3 -10 -20 -34 -38 -53 -19 -20
-32 -44 -31 -59 2 -60 4 -69 22 -69 20 0 44 -44 35 -66 -4 -11 -9 -12 -19 -3
-10 8 -14 8 -14 0 0 -10 6 -13 40 -15 8 -1 19 -10 24 -21 10 -24 70 -65 94
-65 18 -1 52 -23 52 -34 0 -5 10 -16 23 -27 16 -14 17 -17 5 -13 -22 8 -24
-12 -2 -20 9 -4 14 -13 10 -21 -3 -10 1 -15 12 -15 9 0 23 -10 31 -22 12 -19
14 -20 23 -5 10 18 58 24 58 7 0 -5 -12 -10 -27 -10 -18 0 -24 -3 -17 -10 12
-12 94 17 94 33 0 6 5 5 13 -1 7 -6 62 -10 133 -9 88 1 126 -2 137 -12 9 -7
21 -10 27 -6 6 4 16 2 23 -3 7 -6 29 -13 50 -17 21 -4 44 -14 52 -22 8 -8 32
-17 52 -20 21 -4 59 -19 86 -35 89 -52 197 -98 233 -98 19 0 47 -6 62 -14 30
-15 207 -56 352 -82 52 -9 131 -32 175 -50 l81 -34 197 0 197 0 0 50 c0 54 -5
60 -27 33 -12 -16 -13 -15 -7 12 4 17 11 34 15 40 5 5 9 15 9 23 0 9 -7 6 -21
-9 l-20 -24 5 34 c4 19 14 43 23 53 9 10 14 21 10 24 -3 3 -18 -13 -32 -37
-23 -36 -29 -40 -37 -26 -5 10 -21 17 -38 17 -17 0 -30 5 -30 10 0 6 8 10 18
10 11 0 24 11 30 24 6 14 21 30 32 36 20 11 21 10 11 -9 -10 -18 -9 -19 20
-11 18 5 37 6 43 3 6 -4 23 -6 38 -4 14 1 29 -2 32 -8 4 -6 13 -8 20 -5 27 10
27 -17 1 -48 -34 -41 -62 -97 -74 -147 -11 -51 1 -54 18 -3 39 108 82 172 117
172 15 0 16 -2 18 -40 0 -14 4 -28 9 -31 6 -5 -2 -40 -21 -89 -3 -8 -6 -17 -6
-20 -1 -3 -5 -11 -9 -17 -7 -10 83 -13 435 -12 244 1 435 3 426 6 -10 2 -18 9
-18 14 0 5 -9 9 -19 9 -11 0 -23 5 -27 11 -4 8 1 9 17 5 21 -6 22 -5 6 4 -10
7 -26 9 -35 5 -9 -3 -13 -3 -9 1 4 4 -1 13 -11 20 -16 13 -16 13 1 14 10 0 15
5 12 10 -8 14 1 13 70 -6 33 -9 78 -19 100 -23 29 -4 41 -11 43 -26 7 -36 23
-45 76 -45 63 1 86 17 101 73 2 4 4 10 5 15 1 4 2 10 1 14 0 4 11 16 26 27 14
12 20 21 14 21 -7 0 -9 5 -6 10 3 6 20 10 36 10 17 0 37 7 46 15 8 8 19 13 24
9 6 -3 15 -1 22 4 7 5 41 15 77 22 36 6 68 16 71 21 3 5 29 12 57 16 29 3 57
12 63 19 6 8 18 14 27 14 8 0 36 13 61 29 26 15 64 34 86 42 36 12 95 63 95
80 0 4 10 9 23 13 13 3 43 19 67 35 24 16 49 27 57 24 9 -3 11 0 7 10 -4 12 5
17 40 22 26 4 54 5 65 2 10 -2 36 -1 57 3 l39 7 -32 8 c-71 16 -14 70 71 68
28 -1 60 1 71 4 18 6 18 7 -5 13 l-25 6 28 19 c16 10 44 19 63 20 19 1 42 9
52 18 9 8 53 22 97 32 147 32 315 96 315 121 0 6 -11 16 -25 22 -17 8 -25 8
-25 1 0 -6 -6 -9 -12 -6 -7 2 -26 0 -41 -4 -23 -7 -28 -5 -23 7 4 12 2 12 -14
4 -15 -8 -18 -7 -15 2 4 9 -5 13 -25 13 -35 0 -34 1 -14 -19 14 -15 14 -17 -1
-22 -10 -4 -21 -1 -25 7 -7 11 -13 11 -37 -1 -15 -8 -31 -16 -35 -18 -5 -2 -8
0 -8 5 0 4 22 23 49 42 52 35 61 47 57 77 -3 15 -10 18 -37 16 -19 -2 -41 -10
-50 -18 -18 -17 -43 -19 -33 -3 4 7 -1 7 -16 -1 -12 -6 -24 -9 -28 -6 -3 3 0
6 6 6 7 0 12 5 12 10 0 6 -11 8 -27 4 -16 -3 -44 -6 -63 -5 -40 0 -90 -17 -90
-31 0 -5 -6 -8 -12 -6 -7 1 -26 -5 -43 -14 -40 -21 -89 -32 -80 -18 10 16 -11
12 -25 -5 -17 -21 -30 -19 -30 5 0 11 -3 21 -7 21 -5 1 -18 3 -31 4 -13 1 -30
12 -38 23 -8 11 -22 21 -32 21 -158 4 -212 8 -218 14 -24 24 -29 -8 -9 -56 6
-15 4 -18 -11 -15 -13 2 -18 -2 -16 -13 1 -9 -4 -19 -12 -22 -9 -4 -12 -14 -9
-27 5 -19 2 -20 -21 -14 l-27 6 6 -48 c6 -44 3 -52 -24 -86 -23 -27 -41 -38
-74 -43 -53 -9 -106 -33 -132 -61 -25 -28 -107 -72 -137 -75 -79 -7 -117 2
-163 36 -25 20 -50 33 -54 31 -4 -3 -24 -1 -45 5 -20 6 -46 7 -56 4 -22 -7
-26 -35 -8 -53 8 -8 8 -12 1 -12 -18 0 -84 80 -106 128 -32 73 -28 138 12 200
18 29 37 52 41 52 4 0 19 18 34 40 24 37 25 40 7 40 -10 0 -24 -7 -31 -15 -16
-19 -28 -19 -64 0 -15 8 -35 15 -42 15 -8 0 -14 6 -14 13 0 8 -3 7 -10 -3 -8
-12 -10 -12 -15 2 -7 19 -57 44 -155 78 -36 13 -66 24 -68 26 -2 1 -6 26 -8
55 -3 30 -7 59 -9 66 -2 7 0 15 5 18 6 4 10 11 10 17 0 6 -8 4 -18 -5 -22 -20
-35 -20 -86 -2 -30 10 -43 11 -58 2 -16 -10 -22 -9 -32 6 -13 17 -32 25 -22 8
4 -5 2 -21 -4 -36 l-10 -27 -36 27 c-19 15 -38 24 -42 20 -3 -3 0 -10 8 -15
10 -7 11 -10 2 -10 -7 0 -20 9 -29 20 -10 11 -23 20 -30 20 -7 0 -13 5 -13 10
0 6 -11 10 -24 10 -40 0 -56 11 -57 39 0 25 -1 25 -9 4 -11 -28 -80 -75 -94
-64 -16 11 -86 7 -94 -6 -7 -12 -123 -9 -142 2 -6 4 -10 1 -10 -4 0 -6 -4 -11
-10 -11 -5 0 -10 7 -10 16 0 14 -3 14 -15 4 -12 -10 -15 -9 -15 6 0 13 -3 15
-8 7 -8 -13 -155 -14 -167 -1 -4 4 -13 4 -21 1 -8 -3 -14 0 -14 6 0 15 -37 14
-43 -1 -3 -7 -3 1 0 18 3 23 1 33 -11 37 -9 4 -13 13 -10 22 4 9 13 14 20 11
8 -3 14 -2 14 3 0 5 -18 13 -41 19 -35 9 -43 8 -59 -8 -16 -16 -19 -16 -24 -3
-4 8 -12 13 -20 10 -8 -3 -22 1 -33 8 -22 17 -43 19 -43 4z m914 -154 c-4 -8
1 -17 10 -21 9 -3 16 -11 16 -16 0 -6 -7 -8 -15 -4 -9 3 -15 0 -15 -8 0 -9 -8
-12 -24 -9 -14 3 -38 -2 -55 -10 -28 -14 -31 -14 -36 4 -15 46 8 65 72 60 11
-1 24 3 28 8 10 17 25 13 19 -4z m-146 -11 c14 -15 14 -16 -3 -13 -10 2 -20
10 -23 17 -5 17 6 15 26 -4z m-911 -9 c3 -9 3 -19 -1 -22 -7 -7 -36 16 -36 28
0 15 30 10 37 -6z m1133 -69 c0 -3 -4 -8 -10 -11 -5 -3 -10 -1 -10 4 0 6 5 11
10 11 6 0 10 -2 10 -4z m-960 -195 c0 -5 -7 -12 -16 -15 -14 -5 -15 -4 -4 9
14 17 20 19 20 6z m110 -6 c0 -10 -45 -75 -52 -75 -11 0 -10 5 9 45 9 19 23
35 30 35 7 0 13 -2 13 -5z m-54 -130 c-22 -17 -46 -20 -46 -6 0 10 22 18 50
20 11 0 10 -4 -4 -14z m-16 -59 c0 -14 -4 -27 -9 -31 -12 -7 -25 31 -16 45 11
18 25 10 25 -14z m410 10 c0 -3 -4 -8 -10 -11 -5 -3 -10 -1 -10 4 0 6 5 11 10
11 6 0 10 -2 10 -4z m79 -3 c-4 -22 3 -25 15 -7 11 14 18 16 26 8 14 -14 -4
-64 -24 -64 -7 0 -16 -12 -19 -27 -10 -43 -21 -53 -63 -59 -29 -4 -35 -3 -24
5 13 9 13 11 -1 11 -9 0 -22 -7 -29 -15 -7 -8 -16 -15 -21 -15 -14 0 -10 27 7
44 8 9 18 28 20 43 7 40 17 44 12 6 -6 -41 8 -44 17 -4 4 21 15 33 36 40 16 5
29 17 29 25 0 9 5 16 10 16 6 0 9 -3 9 -7z m91 -18 c0 -8 -4 -15 -10 -15 -5 0
-10 7 -10 15 0 8 5 15 10 15 6 0 10 -7 10 -15z m2159 -35 c-11 -30 -20 -36
-32 -23 -6 5 30 53 39 53 2 0 -2 -13 -7 -30z m-2775 4 c4 -9 4 -26 0 -37 -5
-16 -8 -17 -15 -6 -11 18 -11 59 0 59 5 0 12 -7 15 -16z m574 -61 c-2 -9 -9
-18 -17 -21 -8 -3 -11 0 -7 7 4 6 2 11 -3 11 -6 0 -11 5 -11 10 0 6 9 10 21
10 14 0 19 -5 17 -17z m-260 -449 c-7 -15 -14 -21 -16 -15 -5 16 5 41 17 41 7
0 6 -10 -1 -26z m62 15 c0 -5 5 -7 10 -4 6 3 10 -1 10 -9 0 -9 -6 -16 -14 -16
-8 0 -22 -7 -30 -16 -25 -24 -38 -7 -21 27 15 28 45 40 45 18z m45 -109 c3 -5
1 -10 -4 -10 -6 0 -11 5 -11 10 0 6 2 10 4 10 3 0 8 -4 11 -10z m23 -43 c6 -7
8 -18 3 -25 -5 -8 -11 -6 -23 7 -15 18 -14 31 2 31 4 0 12 -6 18 -13z"/>
<path d="M8710 740 c0 -5 5 -10 10 -10 6 0 10 5 10 10 0 6 -4 10 -10 10 -5 0
-10 -4 -10 -10z"/>
<path d="M7930 1388 c0 -9 5 -20 10 -23 13 -8 13 5 0 25 -8 13 -10 13 -10 -2z"/>
<path d="M10070 1141 c0 -5 -10 -11 -23 -15 -25 -6 -116 -106 -97 -106 7 0 31
20 54 45 23 25 55 54 71 65 21 14 25 20 13 20 -10 0 -18 -4 -18 -9z"/>
<path d="M10290 1070 c13 -23 20 -26 20 -6 0 8 -7 16 -15 20 -13 4 -14 2 -5
-14z"/>
<path d="M6563 991 c-9 -14 -9 -21 0 -30 18 -18 27 -13 27 19 0 34 -10 38 -27
11z"/>
<path d="M10366 988 c3 -13 15 -40 25 -60 19 -37 27 -124 10 -114 -5 3 -14
-14 -20 -38 -16 -64 -79 -110 -186 -137 -81 -20 -86 -28 -16 -29 45 0 80 7
120 24 31 13 71 30 89 36 18 7 31 15 28 17 -2 3 -14 -1 -26 -7 -20 -11 -21
-10 -14 12 7 24 31 47 50 48 7 0 12 20 12 47 1 25 6 49 11 52 5 4 13 19 16 34
6 21 4 27 -9 27 -11 0 -16 9 -16 26 0 14 -4 23 -10 19 -6 -3 -13 2 -17 12 -6
19 -38 53 -48 53 -4 0 -3 -10 1 -22z"/>
<path d="M4836 894 c-4 -12 0 -15 17 -13 12 2 28 0 36 -5 8 -5 16 -4 21 5 11
17 1 32 -13 21 -14 -10 -27 -10 -43 1 -7 4 -15 0 -18 -9z"/>
<path d="M10572 870 c0 -14 2 -19 5 -12 2 6 2 18 0 25 -3 6 -5 1 -5 -13z"/>
<path d="M4630 852 c-202 -67 -368 -216 -465 -417 -61 -129 -90 -297 -69 -404
l7 -31 442 0 443 0 30 48 c44 68 70 133 88 221 21 101 15 238 -14 304 -12 26
-17 47 -12 47 6 0 10 -7 10 -16 0 -8 4 -13 9 -9 12 7 -3 43 -40 100 -36 55
-58 73 -69 55 -4 -7 -15 -10 -24 -7 -11 5 -14 14 -10 35 5 25 1 33 -32 58 -35
27 -44 29 -138 31 -76 2 -115 -2 -156 -15z m138 -29 c2 -8 -5 -13 -17 -13 -12
0 -21 6 -21 16 0 18 31 15 38 -3z"/>
<path d="M4377 773 c-7 -11 10 -40 18 -31 4 4 3 14 -3 24 -5 9 -12 12 -15 7z"/>
<path d="M6438 663 c7 -3 16 -2 19 1 4 3 -2 6 -13 5 -11 0 -14 -3 -6 -6z"/>
<path d="M10026 656 c3 -8 13 -17 21 -20 25 -10 23 -3 -3 17 -18 13 -22 14
-18 3z"/>
<path d="M4145 490 c3 -5 13 -10 21 -10 8 0 12 5 9 10 -3 6 -13 10 -21 10 -8
0 -12 -4 -9 -10z"/>
<path d="M12098 365 c-3 -4 -12 -7 -20 -8 -14 -3 -18 -9 -18 -31 0 -11 8 -12
40 -4 38 10 55 28 26 28 -8 0 -16 5 -18 11 -2 5 -6 7 -10 4z"/>
<path d="M12030 330 c0 -5 5 -10 10 -10 6 0 10 5 10 10 0 6 -4 10 -10 10 -5 0
-10 -4 -10 -10z"/>
<path d="M11703 280 c-10 -15 -9 -17 8 -13 20 5 25 18 11 27 -4 2 -13 -4 -19
-14z"/>
<path d="M11764 256 c-3 -9 -10 -13 -15 -10 -5 3 -9 0 -9 -5 0 -6 -6 -11 -14
-11 -8 0 -16 -6 -19 -12 -3 -10 -7 -10 -18 -2 -8 6 -29 11 -47 9 -18 -1 -35 2
-38 7 -7 11 -44 10 -44 -2 0 -5 8 -10 17 -10 22 0 5 -17 -22 -22 -11 -2 -20
-10 -20 -18 0 -18 -19 -40 -34 -40 -6 0 -11 5 -11 11 0 8 -6 7 -16 -2 -9 -7
-26 -13 -38 -14 -11 0 -20 -6 -18 -12 1 -7 -6 -14 -15 -14 -43 -3 -48 -5 -45
-16 3 -16 -35 -17 -40 -1 -3 8 -18 5 -49 -11 -24 -12 -36 -20 -26 -17 9 3 17
1 17 -4 0 -6 -9 -10 -20 -10 -25 0 -26 -12 -2 -33 16 -15 48 -17 234 -17 119
0 223 3 232 6 9 3 16 13 16 21 0 9 6 13 14 10 7 -3 19 0 25 6 9 9 11 8 6 -5
-4 -10 -11 -18 -16 -18 -5 0 -9 -4 -9 -10 0 -5 25 -10 55 -10 30 0 56 5 56 10
4 28 26 77 38 85 6 3 11 12 11 18 0 7 -4 6 -10 -3 -8 -13 -10 -12 -10 4 0 15
-5 13 -28 -13 -15 -17 -40 -34 -56 -37 -16 -3 -33 -7 -38 -10 -20 -12 -29 9
-12 28 16 16 16 21 4 28 -13 8 -13 10 -1 10 8 0 11 3 7 7 -3 4 6 13 21 20 16
7 20 11 11 8 -19 -5 -21 5 -8 45 5 17 8 19 9 8 1 -10 9 -18 19 -18 14 0 18 8
19 36 1 28 -2 34 -14 30 -9 -4 -22 -1 -29 5 -11 9 -15 7 -20 -5z m-24 -81 c0
-8 -2 -15 -4 -15 -2 0 -6 7 -10 15 -3 8 -1 15 4 15 6 0 10 -7 10 -15z"/>
<path d="M11648 253 c6 -2 18 -2 25 0 6 3 1 5 -13 5 -14 0 -19 -2 -12 -5z"/>
<path d="M11500 230 c0 -5 7 -10 15 -10 8 0 15 5 15 10 0 6 -7 10 -15 10 -8 0
-15 -4 -15 -10z"/>
<path d="M6566 13 c-4 -10 7 -13 48 -13 39 0 55 4 60 15 5 13 -4 15 -49 14
-35 -1 -56 -7 -59 -16z"/>
</g>
</svg>
